<svg width="347" height="394" viewBox="0 0 347 394" fill="none" xmlns="http://www.w3.org/2000/svg">
<mask id="mask0_179_4305" style="mask-type:alpha" maskUnits="userSpaceOnUse" x="0" y="0" width="347" height="394">
<path d="M0 20C0 8.9543 8.9543 0 20 0H327C338.046 0 347 8.95431 347 20V374C347 385.046 338.046 394 327 394H20C8.95432 394 0 385.046 0 374V20Z" fill="url(#paint0_linear_179_4305)" fill-opacity="0.1"/>
</mask>
<g mask="url(#mask0_179_4305)">
<path d="M-7.82544 -28.3594C-4.2293 -28.3593 -0.707604 -27.722 2.74194 -26.4727L3.4314 -26.2148C6.87416 -24.8668 9.97855 -22.9223 12.7332 -20.3662L12.7058 -20.3525L13.2175 -19.8564C16.1015 -17.0538 18.268 -13.9013 19.741 -10.3984C21.2164 -6.88989 21.9621 -3.28385 21.9968 0.40625C22.0315 4.09308 21.3217 7.7146 19.8464 11.2734L19.8455 11.2754C18.3909 14.826 16.19 18.0283 13.2703 20.8828L-7.77368 41.333L-13.4983 35.7695L7.47241 15.3916C9.56572 13.3573 11.1753 11.0204 12.2615 8.43457C13.3459 5.85258 13.8718 3.21367 13.8718 0.522461C13.8718 -2.15426 13.3278 -4.79265 12.2449 -7.38867C11.1581 -9.99364 9.5471 -12.3125 7.45581 -14.3623C5.36012 -16.4164 2.97354 -17.9461 0.334717 -18.9824C-2.29947 -20.0169 -4.9913 -20.5264 -7.73755 -20.5264C-10.4833 -20.5264 -13.2082 -20.0171 -15.8918 -19.002C-18.5863 -17.9827 -20.9932 -16.4527 -23.0901 -14.3975C-25.0521 -12.4744 -26.561 -10.3285 -27.594 -7.91797L-27.7942 -7.43164C-28.8224 -4.8543 -29.3294 -2.21922 -29.3118 0.453125C-29.3118 3.12737 -28.7858 5.76319 -27.7581 8.35645C-26.7853 10.8108 -25.3312 13.0126 -23.4016 14.9609L-29.1252 20.5234C-31.8191 17.8215 -33.8727 14.7521 -35.2864 11.3418C-36.7451 7.78014 -37.4895 4.14032 -37.4895 0.436523C-37.4895 -3.28663 -36.7621 -6.90971 -35.2864 -10.4697L-35.2854 -10.4717C-33.8302 -14.0239 -31.6636 -17.1914 -28.7805 -19.9932C-25.8974 -22.795 -22.6541 -24.8844 -19.0315 -26.2656C-15.3977 -27.6511 -11.6453 -28.3594 -7.82544 -28.3594Z" fill="url(#paint1_linear_179_4305)" fill-opacity="0.1" stroke="white"/>
<path d="M149.735 -28.3594C153.331 -28.3593 156.853 -27.722 160.303 -26.4727L160.992 -26.2148C164.435 -24.8668 167.539 -22.9223 170.294 -20.3662L170.268 -20.3525L170.778 -19.8564C173.662 -17.0538 175.829 -13.9013 177.302 -10.3984C178.777 -6.88989 179.523 -3.28386 179.558 0.40625C179.592 4.09308 178.882 7.7146 177.407 11.2734L177.406 11.2754C175.952 14.826 173.751 18.0283 170.831 20.8828L149.787 41.333L144.062 35.7695L165.033 15.3916C167.127 13.3573 168.736 11.0204 169.822 8.43457C170.907 5.85257 171.433 3.21366 171.433 0.522461C171.433 -2.15426 170.889 -4.79265 169.806 -7.38867C168.719 -9.99364 167.108 -12.3124 165.017 -14.3623C162.921 -16.4164 160.534 -17.9461 157.896 -18.9824C155.261 -20.0169 152.569 -20.5264 149.823 -20.5264C147.077 -20.5264 144.353 -20.0171 141.669 -19.002C138.975 -17.9827 136.568 -16.4527 134.471 -14.3975C132.509 -12.4744 131 -10.3285 129.967 -7.91797L129.767 -7.43164C128.738 -4.8543 128.231 -2.21923 128.249 0.453125C128.249 3.12737 128.775 5.76319 129.803 8.35645C130.776 10.8108 132.23 13.0126 134.159 14.9609L128.436 20.5234C125.742 17.8215 123.688 14.7521 122.274 11.3418C120.816 7.78014 120.071 4.14032 120.071 0.436523C120.071 -3.28663 120.799 -6.90971 122.274 -10.4697L122.275 -10.4717C123.731 -14.0239 125.897 -17.1914 128.78 -19.9932C131.663 -22.795 134.907 -24.8844 138.529 -26.2656C142.163 -27.651 145.915 -28.3594 149.735 -28.3594Z" fill="url(#paint2_linear_179_4305)" fill-opacity="0.1" stroke="white"/>
<path d="M104.152 44.0872L98.4978 49.5823L83.9675 35.4622L83.6189 35.1233L83.2703 35.4622C81.5201 37.163 80.2416 39.169 79.4568 41.4924C78.6757 43.8048 78.3847 46.1906 78.6208 48.6799C78.8414 51.0041 79.4587 53.3399 80.4998 55.6565L80.7136 56.1204C81.8702 58.5956 83.4951 60.8571 85.5837 62.8694C87.6728 64.882 90.1107 66.5153 92.7556 67.554C95.3899 68.5885 98.0826 69.0989 100.848 69.0813H100.851C103.613 69.0462 106.303 68.5194 108.935 67.4856C111.577 66.4483 113.944 64.9015 116.036 62.886C118.129 60.8694 119.794 58.4802 120.863 55.9084C121.928 53.3475 122.472 50.727 122.472 48.0842C122.472 45.4241 121.928 42.8207 120.863 40.26C119.856 37.8379 118.367 35.6229 116.403 33.6448L122.091 28.1165C124.625 30.6627 126.574 33.4861 127.954 36.5774L128.235 37.2297C129.693 40.7545 130.403 44.3429 130.403 48.0325C130.403 51.7038 129.676 55.3106 128.234 58.8381C126.797 62.3542 124.614 65.5217 121.712 68.342C118.813 71.1593 115.64 73.1814 112.014 74.5979C108.381 76.0002 104.682 76.7082 100.881 76.7083C97.0951 76.7083 93.36 76.0166 89.7087 74.6311C86.0677 73.2494 82.7899 71.1598 79.8904 68.342C76.9914 65.5248 74.914 62.4274 73.5115 58.8938L73.5105 58.8918C72.0863 55.3473 71.3757 51.723 71.3757 48.05C71.3757 44.3769 72.0862 40.752 73.5105 37.2073C74.9306 33.6731 77.0612 30.5235 79.8904 27.7571L83.6179 24.1331L104.152 44.0872Z" fill="url(#paint3_linear_179_4305)" fill-opacity="0.1" stroke="white"/>
<path d="M60.3789 -32.0339L39.4092 -11.655C37.3159 -9.62074 35.7063 -7.28387 34.6201 -4.698C33.5356 -2.11593 33.0098 0.522822 33.0098 3.21411C33.0098 5.89088 33.5537 8.52918 34.6367 11.1252C35.7234 13.7302 37.3345 16.049 39.4258 18.0989C41.5214 20.1529 43.9082 21.6817 46.5469 22.718C49.181 23.7525 51.8729 24.2619 54.6191 24.262C57.365 24.262 60.0906 23.7528 62.7744 22.7375C65.4687 21.7183 67.8749 20.1882 69.9717 18.1331C72.0644 16.0818 73.6418 13.7773 74.6758 11.1682L74.6748 11.1672C75.6391 8.74999 76.1459 6.28244 76.1904 3.78052L76.1934 3.27954C76.1929 0.606455 75.6679 -2.02771 74.6406 -4.61987C73.6678 -7.0746 72.2132 -9.27681 70.2832 -11.2253L76.0059 -16.7878C78.6994 -14.0864 80.7532 -11.0186 82.167 -7.60913V-7.60815C83.6264 -4.04566 84.3711 -0.40465 84.3711 3.30005C84.3711 7.02319 83.6437 10.6463 82.168 14.2063L82.167 14.2083C80.7118 17.7604 78.5452 20.928 75.6621 23.7297C72.7792 26.5313 69.5364 28.62 65.9141 30.0012C62.2803 31.3867 58.5279 32.0959 54.708 32.0959C50.8724 32.0959 47.1211 31.3707 43.4521 29.9514H43.4531C40.0091 28.6031 36.9029 26.6589 34.1475 24.1018L34.1758 24.0891L33.6641 23.592C30.7803 20.7895 28.6136 17.6377 27.1406 14.135C25.6652 10.6263 24.9194 7.01962 24.8848 3.32935C24.8502 -0.357294 25.56 -3.9782 27.0352 -7.53687L27.0361 -7.53882C28.4907 -11.0895 30.6915 -14.2926 33.6113 -17.1472L54.6533 -37.5974L60.3789 -32.0339Z" fill="url(#paint4_linear_179_4305)" fill-opacity="0.1" stroke="white"/>
<path d="M307.279 -28.3594C310.875 -28.3593 314.397 -27.722 317.846 -26.4727L318.536 -26.2148C321.979 -24.8668 325.083 -22.9223 327.838 -20.3662L327.811 -20.3525L328.322 -19.8564C331.206 -17.0538 333.372 -13.9013 334.845 -10.3984C336.321 -6.88989 337.067 -3.28385 337.101 0.40625C337.136 4.09307 336.426 7.7146 334.951 11.2734L334.95 11.2754C333.495 14.826 331.294 18.0283 328.375 20.8828L307.331 41.333L301.606 35.7695L322.577 15.3916C324.67 13.3573 326.28 11.0204 327.366 8.43457C328.45 5.85257 328.976 3.21366 328.976 0.522461C328.976 -2.15426 328.432 -4.79265 327.349 -7.38867C326.263 -9.99365 324.652 -12.3124 322.56 -14.3623C320.465 -16.4164 318.078 -17.9461 315.439 -18.9824C312.805 -20.0169 310.113 -20.5264 307.367 -20.5264C304.621 -20.5264 301.896 -20.0171 299.213 -19.002C296.518 -17.9827 294.111 -16.4527 292.014 -14.3975C290.052 -12.4744 288.543 -10.3285 287.51 -7.91797L287.31 -7.43164C286.282 -4.8543 285.775 -2.21922 285.793 0.453125C285.793 3.12736 286.319 5.76319 287.346 8.35645C288.319 10.8108 289.773 13.0126 291.703 14.9609L285.979 20.5234C283.285 17.8215 281.232 14.7521 279.818 11.3418C278.359 7.78014 277.615 4.14031 277.615 0.436523C277.615 -3.28662 278.342 -6.90971 279.818 -10.4697L279.819 -10.4717C281.274 -14.0239 283.441 -17.1914 286.324 -19.9932C289.207 -22.795 292.45 -24.8844 296.073 -26.2656C299.707 -27.6511 303.459 -28.3594 307.279 -28.3594Z" fill="url(#paint5_linear_179_4305)" fill-opacity="0.1" stroke="white"/>
<path d="M261.695 44.0872L256.04 49.5823L241.51 35.4622L241.161 35.1233L240.813 35.4622C239.063 37.163 237.784 39.169 236.999 41.4924C236.218 43.8048 235.927 46.1906 236.163 48.6799C236.384 51.0041 237.001 53.3399 238.042 55.6565L238.256 56.1204C239.413 58.5956 241.038 60.8571 243.126 62.8694C245.215 64.882 247.653 66.5153 250.298 67.554C252.932 68.5885 255.625 69.0989 258.391 69.0813H258.394C261.155 69.0462 263.845 68.5194 266.478 67.4856C269.119 66.4483 271.486 64.9015 273.578 62.886C275.672 60.8694 277.336 58.4802 278.406 55.9084C279.47 53.3475 280.015 50.727 280.015 48.0842C280.015 45.4241 279.47 42.8207 278.406 40.26C277.398 37.8379 275.91 35.6229 273.946 33.6448L279.633 28.1165C282.167 30.6627 284.117 33.4861 285.496 36.5774L285.778 37.2297C287.235 40.7545 287.946 44.3429 287.946 48.0325C287.946 51.7038 287.218 55.3106 285.777 58.8381C284.34 62.3542 282.156 65.5217 279.254 68.342C276.355 71.1593 273.183 73.1814 269.557 74.5979C265.923 76.0002 262.224 76.7082 258.423 76.7083C254.638 76.7083 250.903 76.0166 247.251 74.6311C243.61 73.2494 240.332 71.1598 237.433 68.342C234.534 65.5248 232.456 62.4274 231.054 58.8938L231.053 58.8918C229.629 55.3473 228.918 51.723 228.918 48.05C228.918 44.3769 229.629 40.752 231.053 37.2073C232.473 33.6731 234.604 30.5235 237.433 27.7571L241.16 24.1331L261.695 44.0872Z" fill="url(#paint6_linear_179_4305)" fill-opacity="0.1" stroke="white"/>
<path d="M217.94 -32.0339L196.971 -11.655C194.877 -9.62074 193.268 -7.28387 192.182 -4.698C191.097 -2.11593 190.571 0.522819 190.571 3.21411C190.571 5.89088 191.115 8.52918 192.198 11.1252C193.285 13.7302 194.896 16.049 196.987 18.0989C199.083 20.1529 201.47 21.6817 204.108 22.718C206.743 23.7525 209.434 24.2619 212.181 24.262C214.927 24.262 217.652 23.7528 220.336 22.7375C223.03 21.7183 225.436 20.1882 227.533 18.1331C229.626 16.0818 231.203 13.7773 232.237 11.1682L232.236 11.1672C233.201 8.74999 233.707 6.28244 233.752 3.78052L233.755 3.27954C233.754 0.606459 233.229 -2.02771 232.202 -4.61987C231.229 -7.0746 229.775 -9.2768 227.845 -11.2253L233.567 -16.7878C236.261 -14.0864 238.315 -11.0186 239.729 -7.60913V-7.60815C241.188 -4.04566 241.933 -0.40465 241.933 3.30005C241.933 7.02319 241.205 10.6463 239.729 14.2063L239.729 14.2083C238.273 17.7604 236.107 20.928 233.224 23.7297C230.341 26.5313 227.098 28.62 223.476 30.0012C219.842 31.3867 216.089 32.0959 212.27 32.0959C208.434 32.0959 204.683 31.3707 201.014 29.9514H201.015C197.571 28.6031 194.464 26.6589 191.709 24.1018L191.737 24.0891L191.226 23.592C188.342 20.7895 186.175 17.6377 184.702 14.135C183.227 10.6263 182.481 7.01962 182.446 3.32935C182.412 -0.357294 183.122 -3.9782 184.597 -7.53687L184.598 -7.53882C186.052 -11.0895 188.253 -14.2926 191.173 -17.1472L212.215 -37.5974L217.94 -32.0339Z" fill="url(#paint7_linear_179_4305)" fill-opacity="0.1" stroke="white"/>
<path d="M375.483 -32.0339L354.515 -11.655C352.421 -9.6207 350.811 -7.28395 349.725 -4.698C348.64 -2.11593 348.114 0.522826 348.114 3.21411C348.114 5.89088 348.658 8.52918 349.741 11.1252C350.828 13.7302 352.439 16.049 354.53 18.0989C356.626 20.1529 359.013 21.6817 361.651 22.718C364.286 23.7525 366.977 24.2619 369.724 24.262C372.47 24.262 375.195 23.7528 377.879 22.7375C380.573 21.7183 382.979 20.1882 385.076 18.1331C387.169 16.0818 388.746 13.7773 389.78 11.1682L389.779 11.1672C390.744 8.74998 391.25 6.28245 391.295 3.78052L391.298 3.27954C391.297 0.606453 390.772 -2.0277 389.745 -4.61987C388.772 -7.07461 387.318 -9.2768 385.388 -11.2253L391.11 -16.7878C393.804 -14.0864 395.858 -11.0186 397.271 -7.60913V-7.60815C398.731 -4.04566 399.476 -0.404646 399.476 3.30005C399.476 7.02318 398.748 10.6463 397.272 14.2063L397.271 14.2083C395.816 17.7604 393.65 20.928 390.767 23.7297C387.884 26.5313 384.641 28.62 381.019 30.0012C377.385 31.3867 373.632 32.0959 369.812 32.0959C365.977 32.0959 362.226 31.3707 358.557 29.9514H358.558C355.114 28.6031 352.007 26.6589 349.252 24.1018L349.28 24.0891L348.769 23.592C345.885 20.7895 343.718 17.6377 342.245 14.135C340.77 10.6263 340.024 7.01961 339.989 3.32935C339.955 -0.357283 340.665 -3.9782 342.14 -7.53687L342.141 -7.53882C343.595 -11.0895 345.796 -14.2926 348.716 -17.1472L369.759 -37.5974L375.483 -32.0339Z" fill="url(#paint8_linear_179_4305)" fill-opacity="0.1" stroke="white"/>
<path d="M24.7913 29.7166C28.5768 29.7166 32.3118 30.4082 35.9631 31.7937C39.6042 33.1754 42.8819 35.265 45.7815 38.0828C48.6805 40.9 50.7579 43.9974 52.1604 47.531L52.1614 47.533C53.5856 51.0775 54.2961 54.7018 54.2961 58.3748C54.2961 62.0479 53.5857 65.6728 52.1614 69.2175C50.7413 72.7517 48.6107 75.9012 45.7815 78.6677L42.053 82.2908L21.5198 62.3367L27.1741 56.8416L41.7043 70.9626L42.053 71.3015L42.4016 70.9626C44.1517 69.2618 45.4303 67.2557 46.2151 64.9324C46.9961 62.62 47.2872 60.2342 47.051 57.7449C46.8305 55.4207 46.2133 53.085 45.1721 50.7683L44.9583 50.3054C43.8016 47.8299 42.177 45.5679 40.0881 43.5554C37.9991 41.5428 35.5611 39.9095 32.9163 38.8708C30.282 37.8364 27.5893 37.3269 24.8235 37.3445H24.8206C22.059 37.3796 19.369 37.9054 16.7366 38.9392C14.0953 39.9765 11.728 41.5233 9.63599 43.5388C7.54279 45.5555 5.87829 47.9446 4.80884 50.5164C3.74393 53.0773 3.19948 55.6978 3.19946 58.3406C3.19946 61.0008 3.74394 63.6049 4.80884 66.1658C5.81596 68.5876 7.3042 70.8021 9.26782 72.78L3.58032 78.3074C1.04675 75.7613 -0.902506 72.9383 -2.28198 69.8474L-2.56323 69.1951C-4.02095 65.6703 -4.73118 62.0819 -4.7312 58.3923C-4.7312 54.721 -4.0038 51.1142 -2.56226 47.5867C-1.12541 44.0707 1.05807 40.903 3.96021 38.0828C6.85924 35.2655 10.0315 33.2434 13.6575 31.8269C17.2912 30.4246 20.9899 29.7166 24.7913 29.7166Z" fill="url(#paint9_linear_179_4305)" fill-opacity="0.1" stroke="white"/>
<path d="M70.947 74.3293C74.5432 74.3294 78.0649 74.9667 81.5144 76.2161L82.2039 76.4739C85.6466 77.822 88.751 79.7664 91.5056 82.3225L91.4792 82.3362L91.99 82.8323C94.874 85.6349 97.0404 88.7874 98.5134 92.2903C99.9888 95.7988 100.735 99.4049 100.769 103.095C100.804 106.782 100.094 110.403 98.6189 113.962L98.6179 113.964C97.1634 117.515 94.9624 120.717 92.0427 123.572L70.9988 144.022L65.2742 138.458L86.2449 118.08C88.3382 116.046 89.9478 113.709 91.0339 111.123C92.1184 108.541 92.6442 105.902 92.6443 103.211C92.6443 100.534 92.1003 97.8961 91.0173 95.3C89.9306 92.6951 88.3196 90.3763 86.2283 88.3264C84.1326 86.2723 81.746 84.7426 79.1072 83.7063C76.473 82.6718 73.7812 82.1624 71.0349 82.1624C68.2892 82.1624 65.5643 82.6717 62.8806 83.6868C60.1862 84.706 57.7792 86.236 55.6824 88.2913C53.7204 90.2143 52.2114 92.3602 51.1785 94.7708L50.9783 95.2571C49.9501 97.8344 49.4431 100.469 49.4607 103.142C49.4607 105.816 49.9867 108.452 51.0144 111.045C51.9872 113.5 53.4412 115.701 55.3708 117.65L49.6472 123.212C46.9533 120.51 44.8998 117.441 43.4861 114.031C42.0273 110.469 41.283 106.829 41.283 103.125C41.283 99.4021 42.0103 95.779 43.4861 92.219L43.4871 92.217C44.9423 88.6648 47.1088 85.4974 49.9919 82.6956C52.8751 79.8938 56.1183 77.8043 59.741 76.4231C63.3747 75.0377 67.1271 74.3293 70.947 74.3293Z" fill="url(#paint10_linear_179_4305)" fill-opacity="0.1" stroke="white"/>
<path d="M25.3809 146.793L19.7266 152.289L5.19629 138.168L4.84766 137.83L4.49902 138.168C2.74889 139.869 1.47033 141.875 0.685547 144.199C-0.0954933 146.511 -0.386513 148.897 -0.150391 151.386C0.0701114 153.71 0.687413 156.046 1.72852 158.363L1.94238 158.827C3.09896 161.302 4.72382 163.563 6.8125 165.576C8.90151 167.588 11.3395 169.222 13.9844 170.26C16.6187 171.295 19.3114 171.805 22.0771 171.788H22.0801C24.8416 171.753 27.5316 171.226 30.1641 170.192C32.8053 169.155 35.1726 167.608 37.2646 165.592C39.3578 163.576 41.0224 161.186 42.0918 158.615C43.1567 156.054 43.7012 153.433 43.7012 150.791C43.7012 148.13 43.1566 145.527 42.0918 142.966C41.0846 140.544 39.5958 138.329 37.6318 136.351L43.3193 130.823C45.8534 133.369 47.8029 136.192 49.1826 139.284L49.4639 139.936C50.9216 143.461 51.6318 147.049 51.6318 150.739C51.6318 154.41 50.9044 158.017 49.4629 161.544C48.026 165.06 45.8426 168.228 42.9404 171.048C40.0414 173.866 36.8692 175.888 33.2432 177.304C29.6095 178.707 25.9107 179.415 22.1094 179.415C18.3239 179.415 14.5888 178.723 10.9375 177.337C7.29644 175.956 4.01868 173.866 1.11914 171.048C-1.77983 168.231 -3.85726 165.134 -5.25977 161.6L-5.26074 161.598C-6.6849 158.054 -7.3955 154.429 -7.39551 150.756C-7.39551 147.083 -6.68503 143.458 -5.26074 139.914C-3.84063 136.379 -1.71004 133.23 1.11914 130.463L4.84668 126.839L25.3809 146.793Z" fill="url(#paint11_linear_179_4305)" fill-opacity="0.1" stroke="white"/>
<path d="M-18.3921 70.6548L-39.3618 91.0337C-41.4551 93.068 -43.0647 95.4049 -44.1509 97.9907C-45.2354 100.573 -45.7612 103.212 -45.7612 105.903C-45.7612 108.58 -45.2173 111.218 -44.1343 113.814C-43.0476 116.419 -41.4365 118.738 -39.3452 120.788C-37.2496 122.842 -34.8628 124.37 -32.2241 125.407C-29.59 126.441 -26.8981 126.951 -24.1519 126.951C-21.406 126.951 -18.6804 126.442 -15.9966 125.426C-13.3023 124.407 -10.8961 122.877 -8.79932 120.822C-6.7066 118.771 -5.12924 116.466 -4.09521 113.857L-4.09619 113.856C-3.13192 111.439 -2.62515 108.971 -2.58057 106.469L-2.57764 105.968C-2.57807 103.295 -3.10306 100.661 -4.13037 98.0688C-5.10322 95.6141 -6.55781 93.4119 -8.48779 91.4634L-2.76514 85.9009C-0.0715901 88.6023 1.98219 91.6701 3.396 95.0796V95.0806C4.85541 98.6431 5.6001 102.284 5.6001 105.989C5.60009 109.712 4.87273 113.335 3.39697 116.895L3.396 116.897C1.94077 120.449 -0.22583 123.617 -3.10889 126.418C-5.99182 129.22 -9.23459 131.309 -12.8569 132.69C-16.4907 134.075 -20.2431 134.785 -24.063 134.785C-27.8986 134.785 -31.6499 134.059 -35.3188 132.64H-35.3179C-38.7619 131.292 -41.8681 129.348 -44.6235 126.791L-44.5952 126.778L-45.1069 126.281C-47.9907 123.478 -50.1574 120.326 -51.6304 116.824C-53.1058 113.315 -53.8516 109.708 -53.8862 106.018C-53.9208 102.331 -53.211 98.7105 -51.7358 95.1519L-51.7349 95.1499C-50.2803 91.5992 -48.0795 88.3961 -45.1597 85.5415L-24.1177 65.0913L-18.3921 70.6548Z" fill="url(#paint12_linear_179_4305)" fill-opacity="0.1" stroke="white"/>
<path d="M182.335 29.7156C186.121 29.7156 189.856 30.4072 193.507 31.7927C197.148 33.1744 200.426 35.264 203.326 38.0818C206.225 40.8991 208.302 43.9964 209.705 47.53L209.706 47.532C211.13 51.0765 211.84 54.7008 211.84 58.3738C211.84 62.0469 211.13 65.6719 209.706 69.2166C208.285 72.7508 206.155 75.9003 203.326 78.6667L199.597 82.2898L179.064 62.3357L184.718 56.8406L199.249 70.9617L199.597 71.3005L199.946 70.9617C201.696 69.2609 202.975 67.2548 203.759 64.9314C204.54 62.619 204.831 60.2333 204.595 57.7439C204.375 55.4197 203.757 53.084 202.716 50.7673L202.502 50.3044C201.346 47.8289 199.721 45.5669 197.632 43.5544C195.543 41.5419 193.105 39.9085 190.46 38.8699C187.826 37.8354 185.133 37.3259 182.368 37.3435H182.365C179.603 37.3786 176.913 37.9044 174.281 38.9382C171.639 39.9755 169.272 41.5223 167.18 43.5378C165.087 45.5545 163.422 47.9436 162.353 50.5154C161.288 53.0763 160.744 55.6968 160.744 58.3396C160.744 60.9999 161.288 63.604 162.353 66.1648C163.36 68.5866 164.848 70.8012 166.812 72.7791L161.125 78.3064C158.591 75.7603 156.642 72.9374 155.262 69.8464L154.981 69.1941C153.523 65.6693 152.813 62.0809 152.813 58.3914C152.813 54.72 153.54 51.1132 154.982 47.5857C156.419 44.0697 158.602 40.9021 161.504 38.0818C164.403 35.2645 167.576 33.2425 171.202 31.8259C174.835 30.4236 178.534 29.7156 182.335 29.7156Z" fill="url(#paint13_linear_179_4305)" fill-opacity="0.1" stroke="white"/>
<path d="M228.508 74.3286C232.104 74.3287 235.625 74.966 239.075 76.2153L239.764 76.4731C243.207 77.8212 246.312 79.7657 249.066 82.3218L249.04 82.3354L249.551 82.8315C252.435 85.6342 254.601 88.7867 256.074 92.2896C257.549 95.7981 258.295 99.4041 258.33 103.094C258.364 106.781 257.655 110.403 256.179 113.961L256.178 113.963C254.724 117.514 252.523 120.716 249.603 123.571L228.559 144.021L222.835 138.458L243.805 118.08C245.899 116.045 247.508 113.708 248.594 111.123C249.679 108.541 250.205 105.902 250.205 103.21C250.205 100.534 249.661 97.8953 248.578 95.2993C247.491 92.6943 245.88 90.3755 243.789 88.3257C241.693 86.2716 239.307 84.7419 236.668 83.7056C234.034 82.6711 231.342 82.1616 228.595 82.1616C225.85 82.1616 223.125 82.6709 220.441 83.686C217.747 84.7053 215.34 86.2353 213.243 88.2905C211.281 90.2136 209.772 92.3594 208.739 94.77L208.539 95.2563C207.511 97.8337 207.004 100.469 207.021 103.141C207.021 105.815 207.547 108.451 208.575 111.044C209.548 113.499 211.002 115.701 212.931 117.649L207.208 123.211C204.514 120.509 202.46 117.44 201.047 114.03C199.588 110.468 198.844 106.828 198.844 103.125C198.844 99.4014 199.571 95.7783 201.047 92.2183L201.048 92.2163C202.503 88.6641 204.669 85.4966 207.552 82.6948C210.436 79.893 213.679 77.8036 217.302 76.4224C220.935 75.0369 224.688 74.3286 228.508 74.3286Z" fill="url(#paint14_linear_179_4305)" fill-opacity="0.1" stroke="white"/>
<path d="M182.923 146.793L177.269 152.288L162.739 138.168L162.39 137.829L162.041 138.168C160.291 139.869 159.013 141.875 158.228 144.198C157.447 146.51 157.156 148.896 157.392 151.385C157.612 153.71 158.23 156.045 159.271 158.362L159.485 158.826C160.641 161.301 162.266 163.563 164.355 165.575C166.444 167.588 168.882 169.221 171.527 170.26C174.161 171.294 176.854 171.804 179.619 171.787H179.622C182.384 171.752 185.074 171.225 187.706 170.191C190.348 169.154 192.715 167.607 194.807 165.592C196.9 163.575 198.565 161.186 199.634 158.614C200.699 156.053 201.243 153.433 201.243 150.79C201.243 148.13 200.699 145.526 199.634 142.966C198.627 140.543 197.138 138.328 195.174 136.35L200.862 130.822C203.396 133.368 205.345 136.192 206.725 139.283L207.006 139.935C208.464 143.46 209.174 147.048 209.174 150.738C209.174 154.409 208.447 158.016 207.005 161.544C205.568 165.06 203.385 168.227 200.483 171.048C197.584 173.865 194.411 175.887 190.785 177.303C187.152 178.706 183.453 179.414 179.652 179.414C175.866 179.414 172.131 178.722 168.48 177.337C164.839 175.955 161.561 173.865 158.661 171.048C155.762 168.23 153.685 165.133 152.282 161.599L152.281 161.597C150.857 158.053 150.147 154.429 150.147 150.756C150.147 147.082 150.857 143.458 152.281 139.913C153.702 136.379 155.832 133.229 158.661 130.463L162.389 126.839L182.923 146.793Z" fill="url(#paint15_linear_179_4305)" fill-opacity="0.1" stroke="white"/>
<path d="M139.169 70.6545L118.199 91.0334C116.106 93.0677 114.496 95.4046 113.41 97.9905C112.326 100.573 111.8 103.211 111.8 105.903C111.8 108.579 112.344 111.218 113.427 113.814C114.513 116.419 116.125 118.737 118.216 120.787C120.311 122.841 122.698 124.37 125.337 125.406C127.971 126.441 130.663 126.95 133.409 126.95C136.155 126.95 138.881 126.441 141.564 125.426C144.259 124.407 146.665 122.877 148.762 120.822C150.854 118.77 152.432 116.466 153.466 113.857L153.465 113.856C154.429 111.438 154.936 108.971 154.98 106.469L154.983 105.968C154.983 103.295 154.458 100.661 153.431 98.0686C152.458 95.6139 151.003 93.4117 149.073 91.4631L154.796 85.9006C157.489 88.602 159.543 91.6699 160.957 95.0793V95.0803C162.416 98.6428 163.161 102.284 163.161 105.989C163.161 109.712 162.434 113.335 160.958 116.895L160.957 116.897C159.502 120.449 157.335 123.616 154.452 126.418C151.569 129.22 148.326 131.308 144.704 132.69C141.07 134.075 137.318 134.784 133.498 134.784C129.662 134.784 125.911 134.059 122.242 132.64H122.243C118.799 131.292 115.693 129.347 112.938 126.79L112.966 126.778L112.454 126.281C109.57 123.478 107.404 120.326 105.931 116.823C104.455 113.315 103.709 109.708 103.675 106.018C103.64 102.331 104.35 98.7103 105.825 95.1516L105.826 95.1497C107.281 91.599 109.481 88.3959 112.401 85.5413L133.443 65.0911L139.169 70.6545Z" fill="url(#paint16_linear_179_4305)" fill-opacity="0.1" stroke="white"/>
<path d="M339.895 29.7166C343.68 29.7166 347.415 30.4082 351.067 31.7937C354.708 33.1754 357.985 35.265 360.885 38.0828C363.784 40.9 365.861 43.9974 367.264 47.531L367.265 47.533C368.689 51.0775 369.4 54.7018 369.4 58.3748C369.4 62.0479 368.689 65.6728 367.265 69.2175C365.845 72.7517 363.714 75.9012 360.885 78.6677L357.156 82.2908L336.623 62.3367L342.278 56.8416L356.808 70.9626L357.156 71.3015L357.505 70.9626C359.255 69.2618 360.534 67.2557 361.319 64.9324C362.1 62.62 362.391 60.2342 362.155 57.7449C361.934 55.4207 361.317 53.085 360.276 50.7683L360.062 50.3054C358.905 47.8299 357.281 45.5679 355.192 43.5554C353.103 41.5428 350.665 39.9095 348.02 38.8708C345.385 37.8364 342.693 37.3269 339.927 37.3445H339.924C337.163 37.3796 334.473 37.9054 331.84 38.9392C329.199 39.9765 326.832 41.5233 324.74 43.5388C322.646 45.5555 320.982 47.9446 319.912 50.5164C318.847 53.0773 318.303 55.6978 318.303 58.3406C318.303 61.0008 318.847 63.6049 319.912 66.1658C320.919 68.5875 322.408 70.8021 324.371 72.78L318.684 78.3074C316.15 75.7613 314.201 72.9383 312.822 69.8474L312.54 69.1951C311.083 65.6703 310.372 62.0819 310.372 58.3923C310.372 54.721 311.1 51.1142 312.541 47.5867C313.978 44.0707 316.162 40.903 319.064 38.0828C321.963 35.2655 325.135 33.2434 328.761 31.8269C332.395 30.4246 336.093 29.7166 339.895 29.7166Z" fill="url(#paint17_linear_179_4305)" fill-opacity="0.1" stroke="white"/>
<path d="M340.466 146.793L334.812 152.289L320.281 138.168L319.933 137.83L319.584 138.168C317.834 139.869 316.555 141.875 315.771 144.199C314.989 146.511 314.698 148.897 314.935 151.386C315.155 153.71 315.772 156.046 316.813 158.363L317.027 158.827C318.184 161.302 319.809 163.563 321.897 165.576C323.986 167.588 326.424 169.222 329.069 170.26C331.704 171.295 334.396 171.805 337.162 171.788H337.165C339.927 171.753 342.617 171.226 345.249 170.192C347.89 169.155 350.258 167.608 352.35 165.592C354.443 163.576 356.107 161.186 357.177 158.615C358.242 156.054 358.786 153.433 358.786 150.791C358.786 148.13 358.242 145.527 357.177 142.966C356.17 140.544 354.681 138.329 352.717 136.351L358.404 130.823C360.938 133.369 362.888 136.192 364.268 139.284L364.549 139.936C366.007 143.461 366.717 147.049 366.717 150.739C366.717 154.41 365.989 158.017 364.548 161.544C363.111 165.06 360.928 168.228 358.025 171.048C355.126 173.866 351.954 175.888 348.328 177.304C344.694 178.707 340.996 179.415 337.194 179.415C333.409 179.415 329.674 178.723 326.022 177.337C322.381 175.956 319.104 173.866 316.204 171.048C313.305 168.231 311.228 165.134 309.825 161.6L309.824 161.598C308.4 158.054 307.689 154.429 307.689 150.756C307.689 147.083 308.4 143.458 309.824 139.914C311.244 136.379 313.375 133.23 316.204 130.463L319.932 126.839L340.466 146.793Z" fill="url(#paint18_linear_179_4305)" fill-opacity="0.1" stroke="white"/>
<path d="M296.711 70.6548L275.742 91.0337C273.648 93.068 272.039 95.4049 270.953 97.9907C269.868 100.573 269.342 103.212 269.342 105.903C269.342 108.58 269.886 111.218 270.969 113.814C272.056 116.419 273.667 118.738 275.758 120.788C277.854 122.842 280.241 124.37 282.879 125.407C285.514 126.441 288.205 126.951 290.952 126.951C293.698 126.951 296.423 126.442 299.107 125.426C301.801 124.407 304.207 122.877 306.304 120.822C308.397 118.771 309.974 116.466 311.008 113.857L311.007 113.856C311.972 111.439 312.478 108.971 312.523 106.469L312.526 105.968C312.525 103.295 312 100.661 310.973 98.0688C310 95.6141 308.546 93.4119 306.616 91.4634L312.338 85.9009C315.032 88.6023 317.086 91.6701 318.5 95.0796V95.0806C319.959 98.6431 320.704 102.284 320.704 105.989C320.704 109.712 319.976 113.335 318.5 116.895L318.5 116.897C317.044 120.449 314.878 123.617 311.995 126.418C309.112 129.22 305.869 131.309 302.247 132.69C298.613 134.075 294.86 134.785 291.041 134.785C287.205 134.785 283.454 134.059 279.785 132.64H279.786C276.342 131.292 273.235 129.348 270.48 126.791L270.508 126.778L269.997 126.281C267.113 123.478 264.946 120.326 263.473 116.824C261.998 113.315 261.252 109.708 261.217 106.018C261.183 102.331 261.893 98.7105 263.368 95.1519L263.369 95.1499C264.823 91.5992 267.024 88.3961 269.944 85.5415L290.986 65.0913L296.711 70.6548Z" fill="url(#paint19_linear_179_4305)" fill-opacity="0.1" stroke="white"/>
<path d="M-7.82544 177.035C-4.2293 177.035 -0.707604 177.673 2.74194 178.922L3.4314 179.18C6.87373 180.528 9.97783 182.472 12.7322 185.028L12.7058 185.041L13.2175 185.538C16.1015 188.341 18.268 191.493 19.741 194.996C21.2164 198.505 21.9621 202.111 21.9968 205.801C22.0315 209.488 21.3217 213.109 19.8464 216.668L19.8455 216.67C18.3909 220.221 16.19 223.423 13.2703 226.278L-7.77368 246.728L-13.4983 241.164L7.47241 220.786C9.56573 218.752 11.1753 216.415 12.2615 213.829C13.3459 211.247 13.8718 208.608 13.8718 205.917C13.8718 203.241 13.3278 200.602 12.2449 198.006C11.1581 195.401 9.5471 193.082 7.45581 191.032C5.36012 188.978 2.97354 187.449 0.334717 186.412C-2.29946 185.378 -4.9913 184.868 -7.73755 184.868C-10.4833 184.868 -13.2082 185.378 -15.8918 186.393C-18.5863 187.412 -20.9932 188.942 -23.0901 190.997C-25.0521 192.92 -26.561 195.066 -27.594 197.477L-27.7942 197.963C-28.8224 200.54 -29.3294 203.176 -29.3118 205.848C-29.3118 208.522 -28.7858 211.158 -27.7581 213.751C-26.7853 216.206 -25.3312 218.407 -23.4016 220.356L-29.1252 225.918C-31.8191 223.216 -33.8727 220.147 -35.2864 216.737C-36.7451 213.175 -37.4895 209.535 -37.4895 205.831C-37.4895 202.108 -36.7621 198.485 -35.2864 194.925L-35.2854 194.923C-33.8302 191.371 -31.6636 188.203 -28.7805 185.402C-25.8974 182.6 -22.6541 180.51 -19.0315 179.129C-15.3977 177.744 -11.6453 177.035 -7.82544 177.035Z" fill="url(#paint20_linear_179_4305)" fill-opacity="0.1" stroke="white"/>
<path d="M103.563 132.424C107.348 132.424 111.083 133.115 114.735 134.501C118.376 135.882 121.653 137.972 124.553 140.79C127.452 143.607 129.529 146.704 130.932 150.238L130.933 150.24C132.357 153.784 133.068 157.409 133.068 161.082C133.068 164.755 132.357 168.38 130.933 171.925C129.513 175.459 127.382 178.608 124.553 181.375L120.824 184.998L100.291 165.044L105.946 159.549L120.476 173.67L120.824 174.009L121.173 173.67C122.923 171.969 124.202 169.963 124.987 167.639C125.768 165.327 126.059 162.941 125.823 160.452C125.602 158.128 124.985 155.792 123.944 153.475L123.73 153.012C122.573 150.537 120.949 148.275 118.86 146.262C116.771 144.25 114.333 142.617 111.688 141.578C109.053 140.543 106.361 140.034 103.595 140.052H103.592C100.831 140.087 98.1405 140.612 95.5081 141.646C92.8668 142.683 90.4995 144.23 88.4075 146.246C86.3143 148.262 84.6498 150.652 83.5803 153.223C82.5154 155.784 81.971 158.405 81.9709 161.048C81.9709 163.708 82.5154 166.312 83.5803 168.873C84.5874 171.295 86.0757 173.509 88.0393 175.487L82.3518 181.014C79.8182 178.468 77.869 175.645 76.4895 172.554L76.2083 171.902C74.7505 168.377 74.0403 164.789 74.0403 161.099C74.0403 157.428 74.7677 153.821 76.2092 150.294C77.6461 146.778 79.8296 143.61 82.7317 140.79C85.6307 137.973 88.803 135.95 92.429 134.534C96.0627 133.132 99.7614 132.424 103.563 132.424Z" fill="url(#paint21_linear_179_4305)" fill-opacity="0.1" stroke="white"/>
<path d="M149.735 177.035C153.331 177.035 156.853 177.673 160.303 178.922L160.992 179.18C164.435 180.528 167.539 182.472 170.294 185.029L170.267 185.042L170.778 185.538C173.662 188.341 175.829 191.493 177.302 194.996C178.777 198.505 179.523 202.111 179.558 205.801C179.592 209.488 178.882 213.109 177.407 216.668L177.406 216.67C175.952 220.221 173.751 223.423 170.831 226.278L149.787 246.728L144.062 241.164L165.033 220.786C167.127 218.752 168.736 216.415 169.822 213.829C170.907 211.247 171.433 208.608 171.433 205.917C171.433 203.241 170.889 200.602 169.806 198.006C168.719 195.401 167.108 193.082 165.017 191.032C162.921 188.978 160.534 187.449 157.896 186.412C155.261 185.378 152.569 184.868 149.823 184.868C147.077 184.868 144.353 185.378 141.669 186.393C138.975 187.412 136.568 188.942 134.471 190.997C132.509 192.92 131 195.066 129.967 197.477L129.767 197.963C128.738 200.54 128.231 203.176 128.249 205.848C128.249 208.522 128.775 211.158 129.803 213.751C130.776 216.206 132.23 218.407 134.159 220.356L128.436 225.918C125.742 223.216 123.688 220.147 122.274 216.737C120.816 213.175 120.071 209.535 120.071 205.831C120.071 202.108 120.799 198.485 122.274 194.925L122.275 194.923C123.731 191.371 125.897 188.203 128.78 185.402C131.663 182.6 134.907 180.51 138.529 179.129C142.163 177.744 145.915 177.035 149.735 177.035Z" fill="url(#paint22_linear_179_4305)" fill-opacity="0.1" stroke="white"/>
<path d="M104.152 249.482L98.4978 254.978L83.9675 240.857L83.6189 240.519L83.2703 240.857C81.5201 242.558 80.2416 244.564 79.4568 246.888C78.6757 249.2 78.3847 251.586 78.6208 254.075C78.8414 256.399 79.4587 258.735 80.4998 261.052L80.7136 261.516C81.8702 263.991 83.4951 266.252 85.5837 268.265C87.6728 270.277 90.1107 271.911 92.7556 272.949C95.3899 273.984 98.0826 274.494 100.848 274.477H100.851C103.613 274.441 106.303 273.915 108.935 272.881C111.577 271.844 113.944 270.297 116.036 268.281C118.129 266.265 119.794 263.875 120.863 261.304C121.928 258.743 122.472 256.122 122.472 253.479C122.472 250.819 121.928 248.216 120.863 245.655C119.856 243.233 118.367 241.018 116.403 239.04L122.091 233.512C124.625 236.058 126.574 238.881 127.954 241.973L128.235 242.625C129.693 246.15 130.403 249.738 130.403 253.428C130.403 257.099 129.676 260.706 128.234 264.233C126.797 267.749 124.614 270.917 121.712 273.737C118.813 276.555 115.64 278.577 112.014 279.993C108.381 281.396 104.682 282.104 100.881 282.104C97.0951 282.104 93.36 281.412 89.7087 280.026C86.0677 278.645 82.7899 276.555 79.8904 273.737C76.9914 270.92 74.914 267.823 73.5115 264.289L73.5105 264.287C72.0863 260.743 71.3757 257.118 71.3757 253.445C71.3757 249.772 72.0862 246.147 73.5105 242.603C74.9306 239.068 77.0612 235.919 79.8904 233.152L83.6179 229.528L104.152 249.482Z" fill="url(#paint23_linear_179_4305)" fill-opacity="0.1" stroke="white"/>
<path d="M60.3789 173.362L39.4092 193.741C37.3159 195.775 35.7063 198.112 34.6201 200.698C33.5356 203.28 33.0098 205.919 33.0098 208.61C33.0098 211.287 33.5537 213.925 34.6367 216.521C35.7234 219.126 37.3345 221.445 39.4258 223.495C41.5214 225.549 43.9082 227.078 46.5469 228.114C49.181 229.148 51.8729 229.658 54.6191 229.658C57.365 229.658 60.0906 229.149 62.7744 228.134C65.4687 227.114 67.8749 225.584 69.9717 223.529C72.0644 221.478 73.6418 219.173 74.6758 216.564L74.6748 216.563C75.6391 214.146 76.1459 211.678 76.1904 209.177L76.1934 208.676C76.1929 206.002 75.6679 203.368 74.6406 200.776C73.6678 198.321 72.2132 196.119 70.2832 194.171L76.0059 188.608C78.6994 191.31 80.7532 194.377 82.167 197.787V197.788C83.6264 201.35 84.3711 204.991 84.3711 208.696C84.3711 212.419 83.6437 216.042 82.168 219.602L82.167 219.604C80.7118 223.156 78.5452 226.324 75.6621 229.126C72.7792 231.927 69.5364 234.016 65.9141 235.397C62.2803 236.783 58.5279 237.492 54.708 237.492C50.8724 237.492 47.1211 236.767 43.4521 235.347H43.4531C40.0091 233.999 36.9029 232.055 34.1475 229.498L34.1758 229.485L33.6641 228.988C30.7803 226.186 28.6136 223.034 27.1406 219.531C25.6652 216.022 24.9194 212.416 24.8848 208.725C24.8502 205.039 25.56 201.418 27.0352 197.859L27.0361 197.857C28.4907 194.306 30.6915 191.103 33.6113 188.249L54.6533 167.799L60.3789 173.362Z" fill="url(#paint24_linear_179_4305)" fill-opacity="0.1" stroke="white"/>
<path d="M261.123 132.424C264.909 132.424 268.644 133.115 272.295 134.501C275.936 135.882 279.214 137.972 282.114 140.79C285.013 143.607 287.09 146.704 288.492 150.238L288.493 150.24C289.918 153.784 290.628 157.409 290.628 161.082C290.628 164.755 289.918 168.38 288.493 171.925C287.073 175.459 284.943 178.608 282.114 181.375L278.385 184.998L257.852 165.044L263.506 159.549L278.036 173.67L278.385 174.009L278.734 173.67C280.484 171.969 281.762 169.963 282.547 167.639C283.328 165.327 283.619 162.941 283.383 160.452C283.163 158.128 282.545 155.792 281.504 153.475L281.29 153.012C280.134 150.537 278.508 148.275 276.419 146.262C274.33 144.25 271.893 142.616 269.248 141.578C266.614 140.543 263.921 140.034 261.156 140.052H261.153C258.391 140.087 255.701 140.612 253.069 141.646C250.427 142.683 248.06 144.23 245.968 146.246C243.875 148.262 242.21 150.652 241.141 153.223C240.076 155.784 239.532 158.405 239.531 161.048C239.531 163.708 240.076 166.312 241.141 168.873C242.148 171.295 243.636 173.509 245.6 175.487L239.912 181.014C237.379 178.468 235.43 175.645 234.05 172.554L233.769 171.902C232.311 168.377 231.601 164.789 231.601 161.099C231.601 157.428 232.328 153.821 233.77 150.294C235.207 146.778 237.39 143.61 240.292 140.79C243.191 137.973 246.364 135.95 249.99 134.534C253.623 133.132 257.322 132.424 261.123 132.424Z" fill="url(#paint25_linear_179_4305)" fill-opacity="0.1" stroke="white"/>
<path d="M307.279 177.035C310.875 177.035 314.397 177.673 317.846 178.922L318.536 179.18C321.979 180.528 325.083 182.472 327.838 185.029L327.81 185.042L328.322 185.538C331.206 188.341 333.372 191.493 334.845 194.996C336.321 198.505 337.067 202.111 337.101 205.801C337.136 209.488 336.426 213.109 334.951 216.668L334.95 216.67C333.495 220.221 331.294 223.423 328.375 226.278L307.331 246.728L301.606 241.164L322.577 220.786C324.67 218.752 326.28 216.415 327.366 213.829C328.45 211.247 328.976 208.608 328.976 205.917C328.976 203.241 328.432 200.602 327.349 198.006C326.263 195.401 324.652 193.082 322.56 191.032C320.465 188.978 318.078 187.449 315.439 186.412C312.805 185.378 310.113 184.868 307.367 184.868C304.621 184.868 301.896 185.378 299.213 186.393C296.518 187.412 294.111 188.942 292.014 190.997C290.052 192.92 288.543 195.066 287.51 197.477L287.31 197.963C286.282 200.54 285.775 203.176 285.793 205.848C285.793 208.522 286.319 211.158 287.346 213.751C288.319 216.206 289.773 218.407 291.703 220.356L285.979 225.918C283.285 223.216 281.232 220.147 279.818 216.737C278.359 213.175 277.615 209.535 277.615 205.831C277.615 202.108 278.342 198.485 279.818 194.925L279.819 194.923C281.274 191.371 283.441 188.203 286.324 185.402C289.207 182.6 292.45 180.51 296.073 179.129C299.707 177.744 303.459 177.035 307.279 177.035Z" fill="url(#paint26_linear_179_4305)" fill-opacity="0.1" stroke="white"/>
<path d="M261.695 249.482L256.04 254.978L241.51 240.857L241.161 240.519L240.813 240.857C239.063 242.558 237.784 244.564 236.999 246.888C236.218 249.2 235.927 251.586 236.163 254.075C236.384 256.399 237.001 258.735 238.042 261.052L238.256 261.516C239.413 263.991 241.038 266.252 243.126 268.265C245.215 270.277 247.653 271.911 250.298 272.949C252.932 273.984 255.625 274.494 258.391 274.477H258.394C261.155 274.441 263.845 273.915 266.478 272.881C269.119 271.844 271.486 270.297 273.578 268.281C275.672 266.265 277.336 263.875 278.406 261.304C279.47 258.743 280.015 256.122 280.015 253.479C280.015 250.819 279.47 248.216 278.406 245.655C277.398 243.233 275.91 241.018 273.946 239.04L279.633 233.512C282.167 236.058 284.117 238.881 285.496 241.973L285.778 242.625C287.235 246.15 287.946 249.738 287.946 253.428C287.946 257.099 287.218 260.706 285.777 264.233C284.34 267.749 282.156 270.917 279.254 273.737C276.355 276.555 273.183 278.577 269.557 279.993C265.923 281.396 262.224 282.104 258.423 282.104C254.638 282.104 250.903 281.412 247.251 280.026C243.61 278.645 240.332 276.555 237.433 273.737C234.534 270.92 232.456 267.823 231.054 264.289L231.053 264.287C229.629 260.743 228.918 257.118 228.918 253.445C228.918 249.772 229.629 246.147 231.053 242.603C232.473 239.068 234.604 235.919 237.433 233.152L241.16 229.528L261.695 249.482Z" fill="url(#paint27_linear_179_4305)" fill-opacity="0.1" stroke="white"/>
<path d="M217.94 173.362L196.971 193.741C194.877 195.775 193.268 198.112 192.182 200.698C191.097 203.28 190.571 205.919 190.571 208.61C190.571 211.287 191.115 213.925 192.198 216.521C193.285 219.126 194.896 221.445 196.987 223.495C199.083 225.549 201.47 227.078 204.108 228.114C206.743 229.148 209.434 229.658 212.181 229.658C214.927 229.658 217.652 229.149 220.336 228.134C223.03 227.114 225.436 225.584 227.533 223.529C229.626 221.478 231.203 219.173 232.237 216.564L232.236 216.563C233.201 214.146 233.707 211.678 233.752 209.177L233.755 208.676C233.754 206.002 233.229 203.368 232.202 200.776C231.229 198.321 229.775 196.119 227.845 194.171L233.567 188.608C236.261 191.31 238.315 194.377 239.729 197.787V197.788C241.188 201.35 241.933 204.991 241.933 208.696C241.933 212.419 241.205 216.042 239.729 219.602L239.729 219.604C238.273 223.156 236.107 226.324 233.224 229.126C230.341 231.927 227.098 234.016 223.476 235.397C219.842 236.783 216.089 237.492 212.27 237.492C208.434 237.492 204.683 236.767 201.014 235.347H201.015C197.571 233.999 194.464 232.055 191.709 229.498L191.737 229.485L191.226 228.988C188.342 226.186 186.175 223.034 184.702 219.531C183.227 216.022 182.481 212.416 182.446 208.725C182.412 205.039 183.122 201.418 184.597 197.859L184.598 197.857C186.052 194.306 188.253 191.103 191.173 188.249L212.215 167.799L217.94 173.362Z" fill="url(#paint28_linear_179_4305)" fill-opacity="0.1" stroke="white"/>
<path d="M375.483 173.362L354.515 193.741C352.421 195.775 350.811 198.112 349.725 200.698C348.64 203.28 348.114 205.919 348.114 208.61C348.114 211.287 348.658 213.925 349.741 216.521C350.828 219.126 352.439 221.445 354.53 223.495C356.626 225.549 359.013 227.078 361.651 228.114C364.286 229.148 366.977 229.658 369.724 229.658C372.47 229.658 375.195 229.149 377.879 228.134C380.573 227.114 382.979 225.584 385.076 223.529C387.169 221.478 388.746 219.173 389.78 216.564L389.779 216.563C390.744 214.146 391.25 211.678 391.295 209.177L391.298 208.676C391.297 206.002 390.772 203.368 389.745 200.776C388.772 198.321 387.318 196.119 385.388 194.171L391.11 188.608C393.804 191.31 395.858 194.377 397.271 197.787V197.788C398.731 201.35 399.476 204.991 399.476 208.696C399.476 212.419 398.748 216.042 397.272 219.602L397.271 219.604C395.816 223.156 393.65 226.324 390.767 229.126C387.884 231.927 384.641 234.016 381.019 235.397C377.385 236.783 373.632 237.492 369.812 237.492C365.977 237.492 362.226 236.767 358.557 235.347H358.558C355.114 233.999 352.007 232.055 349.252 229.498L349.28 229.485L348.769 228.988C345.885 226.186 343.718 223.034 342.245 219.531C340.77 216.022 340.024 212.416 339.989 208.725C339.955 205.039 340.665 201.418 342.14 197.859L342.141 197.857C343.595 194.306 345.796 191.103 348.716 188.249L369.759 167.799L375.483 173.362Z" fill="url(#paint29_linear_179_4305)" fill-opacity="0.1" stroke="white"/>
<path d="M24.7913 235.112C28.5768 235.112 32.3118 235.804 35.9631 237.189C39.6042 238.571 42.8819 240.661 45.7815 243.479C48.6805 246.296 50.7579 249.393 52.1604 252.927L52.1614 252.929C53.5856 256.473 54.2961 260.098 54.2961 263.771C54.2961 267.444 53.5857 271.069 52.1614 274.613C50.7413 278.147 48.6107 281.297 45.7815 284.063L42.053 287.687L21.5198 267.732L27.1741 262.237L41.7043 276.358L42.053 276.697L42.4016 276.358C44.1517 274.658 45.4303 272.651 46.2151 270.328C46.9961 268.016 47.2872 265.63 47.051 263.141C46.8305 260.816 46.2133 258.481 45.1721 256.164L44.9583 255.701C43.8016 253.226 42.177 250.964 40.0881 248.951C37.9991 246.939 35.5611 245.305 32.9163 244.267C30.282 243.232 27.5893 242.723 24.8235 242.74H24.8206C22.059 242.775 19.369 243.301 16.7366 244.335C14.0953 245.372 11.728 246.919 9.63599 248.935C7.54279 250.951 5.87829 253.34 4.80884 255.912C3.74393 258.473 3.19949 261.094 3.19946 263.736C3.19946 266.397 3.74394 269.001 4.80884 271.562C5.81596 273.983 7.3042 276.198 9.26782 278.176L3.58032 283.703C1.04674 281.157 -0.902506 278.334 -2.28198 275.243L-2.56323 274.591C-4.02094 271.066 -4.73118 267.478 -4.7312 263.788C-4.7312 260.117 -4.0038 256.51 -2.56226 252.982C-1.12541 249.466 1.05807 246.299 3.96021 243.479C6.85924 240.661 10.0315 238.639 13.6575 237.223C17.2912 235.82 20.9899 235.112 24.7913 235.112Z" fill="url(#paint30_linear_179_4305)" fill-opacity="0.1" stroke="white"/>
<path d="M70.947 279.741C74.5432 279.741 78.0649 280.379 81.5144 281.628L82.2039 281.886C85.6466 283.234 88.751 285.179 91.5056 287.735L91.4792 287.748L91.99 288.244C94.874 291.047 97.0404 294.2 98.5134 297.702C99.9889 301.211 100.735 304.818 100.769 308.508C100.804 312.195 100.094 315.816 98.6189 319.374L98.6179 319.376C97.1634 322.927 94.9624 326.129 92.0427 328.984L70.9988 349.434L65.2742 343.87L86.2449 323.492C88.3382 321.458 89.9478 319.121 91.0339 316.535C92.1184 313.953 92.6442 311.315 92.6443 308.623C92.6443 305.947 92.1003 303.308 91.0173 300.712C89.9306 298.107 88.3196 295.788 86.2283 293.739C84.1326 291.684 81.746 290.155 79.1072 289.118C76.473 288.084 73.7812 287.574 71.0349 287.574C68.2892 287.574 65.5643 288.084 62.8806 289.099C60.1862 290.118 57.7792 291.648 55.6824 293.703C53.7204 295.626 52.2114 297.772 51.1785 300.183L50.9783 300.669C49.9501 303.247 49.4431 305.882 49.4607 308.554C49.4607 311.228 49.9867 313.864 51.0144 316.457C51.9872 318.912 53.4412 321.113 55.3708 323.062L49.6472 328.624C46.9533 325.922 44.8998 322.853 43.4861 319.443C42.0274 315.881 41.283 312.241 41.283 308.537C41.283 304.814 42.0103 301.191 43.4861 297.631L43.4871 297.629C44.9423 294.077 47.1088 290.909 49.9919 288.108C52.8751 285.306 56.1183 283.216 59.741 281.835C63.3747 280.45 67.1271 279.741 70.947 279.741Z" fill="url(#paint31_linear_179_4305)" fill-opacity="0.1" stroke="white"/>
<path d="M25.3799 352.188L19.7256 357.683L5.19629 343.563L4.84766 343.224L4.49902 343.563C2.74889 345.264 1.47033 347.27 0.685547 349.593C-0.0954901 351.906 -0.386514 354.291 -0.150391 356.781C0.0701119 359.105 0.687409 361.441 1.72852 363.757L1.94238 364.221C3.09896 366.696 4.72382 368.958 6.8125 370.97C8.90151 372.983 11.3395 374.616 13.9844 375.655C16.6187 376.689 19.3114 377.2 22.0771 377.182H22.0801C24.8416 377.147 27.5316 376.62 30.1641 375.586C32.8053 374.549 35.1726 373.002 37.2646 370.987C39.3578 368.97 41.0224 366.581 42.0918 364.009C43.1567 361.448 43.7012 358.828 43.7012 356.185C43.7012 353.525 43.1566 350.922 42.0918 348.361C41.0846 345.939 39.5958 343.724 37.6318 341.746L43.3193 336.217C45.8534 338.764 47.8029 341.587 49.1826 344.678L49.4639 345.331C50.9216 348.855 51.6318 352.444 51.6318 356.133C51.6318 359.805 50.9044 363.411 49.4629 366.939C48.026 370.455 45.8426 373.623 42.9404 376.443C40.0414 379.26 36.8692 381.282 33.2432 382.699C29.6095 384.101 25.9107 384.809 22.1094 384.809C18.3239 384.809 14.5888 384.117 10.9375 382.732C7.29643 381.35 4.01869 379.261 1.11914 376.443C-1.77983 373.626 -3.85726 370.528 -5.25977 366.995L-5.26074 366.993C-6.6849 363.448 -7.3955 359.824 -7.39551 356.151C-7.39551 352.478 -6.68503 348.853 -5.26074 345.308C-3.84063 341.774 -1.71004 338.624 1.11914 335.858L4.84668 332.234L25.3799 352.188Z" fill="url(#paint32_linear_179_4305)" fill-opacity="0.1" stroke="white"/>
<path d="M-18.3921 276.051L-39.3618 296.429C-41.4551 298.464 -43.0647 300.801 -44.1509 303.386C-45.2354 305.969 -45.7612 308.607 -45.7612 311.299C-45.7612 313.975 -45.2173 316.614 -44.1343 319.21C-43.0476 321.815 -41.4365 324.133 -39.3452 326.183C-37.2496 328.237 -34.8628 329.766 -32.2241 330.802C-29.59 331.837 -26.8981 332.346 -24.1519 332.346C-21.406 332.346 -18.6804 331.837 -15.9966 330.822C-13.3023 329.803 -10.8961 328.273 -8.79932 326.218C-6.7066 324.166 -5.12924 321.862 -4.09521 319.253L-4.09619 319.252C-3.13192 316.834 -2.62514 314.367 -2.58057 311.865L-2.57764 311.364C-2.57807 308.691 -3.10306 306.057 -4.13037 303.465C-5.10322 301.01 -6.55781 298.808 -8.48779 296.859L-2.76514 291.297C-0.0715882 293.998 1.98219 297.066 3.396 300.475V300.476C4.85541 304.039 5.6001 307.68 5.6001 311.385C5.60009 315.108 4.87273 318.731 3.39697 322.291L3.396 322.293C1.94077 325.845 -0.22583 329.012 -3.10889 331.814C-5.99182 334.616 -9.23459 336.704 -12.8569 338.086C-16.4907 339.471 -20.2431 340.18 -24.063 340.18C-27.8986 340.18 -31.6499 339.455 -35.3188 338.036H-35.3179C-38.7619 336.688 -41.8681 334.743 -44.6235 332.186L-44.5952 332.174L-45.1069 331.677C-47.9907 328.874 -50.1574 325.722 -51.6304 322.219C-53.1058 318.711 -53.8516 315.104 -53.8862 311.414C-53.9208 307.727 -53.211 304.106 -51.7358 300.548L-51.7349 300.546C-50.2803 296.995 -48.0795 293.792 -45.1597 290.937L-24.1177 270.487L-18.3921 276.051Z" fill="url(#paint33_linear_179_4305)" fill-opacity="0.1" stroke="white"/>
<path d="M182.335 235.112C186.121 235.112 189.856 235.803 193.507 237.189C197.148 238.57 200.426 240.66 203.326 243.478C206.225 246.295 208.302 249.392 209.705 252.926L209.706 252.928C211.13 256.472 211.84 260.097 211.84 263.77C211.84 267.443 211.13 271.068 209.706 274.613C208.285 278.147 206.155 281.296 203.326 284.063L199.597 287.686L179.064 267.732L184.718 262.237L199.249 276.358L199.597 276.697L199.946 276.358C201.696 274.657 202.975 272.651 203.759 270.327C204.54 268.015 204.831 265.629 204.595 263.14C204.375 260.816 203.757 258.48 202.716 256.163L202.502 255.7C201.346 253.225 199.721 250.963 197.632 248.95C195.543 246.938 193.105 245.305 190.46 244.266C187.826 243.231 185.133 242.722 182.368 242.74H182.365C179.603 242.775 176.913 243.3 174.281 244.334C171.639 245.371 169.272 246.918 167.18 248.934C165.087 250.95 163.422 253.34 162.353 255.911C161.288 258.472 160.744 261.093 160.744 263.736C160.744 266.396 161.288 269 162.353 271.561C163.36 273.983 164.848 276.197 166.812 278.175L161.125 283.702C158.591 281.156 156.642 278.333 155.262 275.242L154.981 274.59C153.523 271.065 152.813 267.477 152.813 263.787C152.813 260.116 153.54 256.509 154.982 252.982C156.419 249.466 158.602 246.298 161.504 243.478C164.403 240.661 167.576 238.638 171.202 237.222C174.835 235.82 178.534 235.112 182.335 235.112Z" fill="url(#paint34_linear_179_4305)" fill-opacity="0.1" stroke="white"/>
<path d="M228.508 279.741C232.104 279.741 235.625 280.379 239.075 281.628L239.764 281.886C243.207 283.234 246.312 285.179 249.066 287.735L249.04 287.748L249.551 288.244C252.435 291.047 254.601 294.2 256.074 297.702C257.549 301.211 258.295 304.818 258.33 308.508C258.364 312.195 257.655 315.816 256.179 319.374L256.178 319.376C254.724 322.927 252.523 326.129 249.603 328.984L228.559 349.434L222.835 343.87L243.805 323.492C245.899 321.458 247.508 319.121 248.594 316.535C249.679 313.953 250.205 311.314 250.205 308.623C250.205 305.947 249.661 303.308 248.578 300.712C247.491 298.107 245.88 295.788 243.789 293.739C241.693 291.684 239.307 290.155 236.668 289.118C234.034 288.084 231.342 287.574 228.595 287.574C225.85 287.574 223.125 288.084 220.441 289.099C217.747 290.118 215.34 291.648 213.243 293.703C211.281 295.626 209.772 297.772 208.739 300.183L208.539 300.669C207.511 303.247 207.004 305.882 207.021 308.554C207.021 311.228 207.547 313.864 208.575 316.457C209.548 318.912 211.002 321.113 212.931 323.062L207.208 328.624C204.514 325.922 202.46 322.853 201.047 319.443C199.588 315.881 198.844 312.241 198.844 308.537C198.844 304.814 199.571 301.191 201.047 297.631L201.048 297.629C202.503 294.077 204.669 290.909 207.552 288.108C210.436 285.306 213.679 283.216 217.302 281.835C220.935 280.45 224.688 279.741 228.508 279.741Z" fill="url(#paint35_linear_179_4305)" fill-opacity="0.1" stroke="white"/>
<path d="M182.923 352.188L177.269 357.683L162.739 343.563L162.39 343.224L162.041 343.563C160.291 345.264 159.013 347.27 158.228 349.593C157.447 351.906 157.156 354.291 157.392 356.781C157.612 359.105 158.23 361.441 159.271 363.757L159.485 364.221C160.641 366.696 162.266 368.958 164.355 370.97C166.444 372.983 168.882 374.616 171.527 375.655C174.161 376.689 176.854 377.2 179.619 377.182H179.622C182.384 377.147 185.074 376.62 187.706 375.586C190.348 374.549 192.715 373.002 194.807 370.987C196.9 368.97 198.565 366.581 199.634 364.009C200.699 361.448 201.243 358.828 201.243 356.185C201.243 353.525 200.699 350.922 199.634 348.361C198.627 345.939 197.138 343.724 195.174 341.746L200.862 336.217C203.396 338.764 205.345 341.587 206.725 344.678L207.006 345.331C208.464 348.855 209.174 352.444 209.174 356.133C209.174 359.805 208.447 363.411 207.005 366.939C205.568 370.455 203.385 373.623 200.483 376.443C197.584 379.26 194.411 381.282 190.785 382.699C187.152 384.101 183.453 384.809 179.652 384.809C175.866 384.809 172.131 384.117 168.48 382.732C164.839 381.35 161.561 379.261 158.661 376.443C155.762 373.626 153.685 370.528 152.282 366.995L152.281 366.993C150.857 363.448 150.147 359.824 150.147 356.151C150.147 352.478 150.857 348.853 152.281 345.308C153.702 341.774 155.832 338.624 158.661 335.858L162.389 332.234L182.923 352.188Z" fill="url(#paint36_linear_179_4305)" fill-opacity="0.1" stroke="white"/>
<path d="M139.169 276.05L118.199 296.429C116.106 298.463 114.496 300.8 113.41 303.386C112.326 305.968 111.8 308.607 111.8 311.298C111.8 313.975 112.344 316.613 113.427 319.209C114.513 321.814 116.125 324.133 118.216 326.183C120.311 328.237 122.698 329.765 125.337 330.802C127.971 331.836 130.663 332.346 133.409 332.346C136.155 332.346 138.881 331.837 141.564 330.821C144.259 329.802 146.665 328.272 148.762 326.217C150.854 324.166 152.432 321.861 153.466 319.252L153.465 319.251C154.429 316.834 154.936 314.366 154.98 311.864L154.983 311.363C154.983 308.69 154.458 306.056 153.431 303.464C152.458 301.009 151.003 298.807 149.073 296.858L154.796 291.296C157.489 293.997 159.543 297.065 160.957 300.475V300.476C162.416 304.038 163.161 307.679 163.161 311.384C163.161 315.107 162.434 318.73 160.958 322.29L160.957 322.292C159.502 325.844 157.335 329.012 154.452 331.813C151.569 334.615 148.326 336.704 144.704 338.085C141.07 339.47 137.318 340.18 133.498 340.18C129.662 340.18 125.911 339.454 122.242 338.035H122.243C118.799 336.687 115.693 334.743 112.938 332.186L112.966 332.173L112.454 331.676C109.57 328.873 107.404 325.721 105.931 322.219C104.455 318.71 103.709 315.103 103.675 311.413C103.64 307.726 104.35 304.106 105.825 300.547L105.826 300.545C107.281 296.994 109.482 293.791 112.401 290.937L133.443 270.486L139.169 276.05Z" fill="url(#paint37_linear_179_4305)" fill-opacity="0.1" stroke="white"/>
<path d="M339.895 235.112C343.68 235.112 347.415 235.804 351.067 237.189C354.708 238.571 357.985 240.661 360.885 243.479C363.784 246.296 365.861 249.393 367.264 252.927L367.265 252.929C368.689 256.473 369.4 260.098 369.4 263.771C369.4 267.444 368.689 271.069 367.265 274.613C365.845 278.147 363.714 281.297 360.885 284.063L357.156 287.687L336.623 267.732L342.278 262.237L356.808 276.358L357.156 276.697L357.505 276.358C359.255 274.658 360.534 272.651 361.319 270.328C362.1 268.016 362.391 265.63 362.155 263.141C361.934 260.816 361.317 258.481 360.276 256.164L360.062 255.701C358.905 253.226 357.281 250.964 355.192 248.951C353.103 246.939 350.665 245.305 348.02 244.267C345.385 243.232 342.693 242.723 339.927 242.74H339.924C337.163 242.775 334.473 243.301 331.84 244.335C329.199 245.372 326.832 246.919 324.74 248.935C322.646 250.951 320.982 253.34 319.912 255.912C318.847 258.473 318.303 261.094 318.303 263.736C318.303 266.397 318.847 269.001 319.912 271.562C320.919 273.983 322.408 276.198 324.371 278.176L318.684 283.703C316.15 281.157 314.201 278.334 312.822 275.243L312.54 274.591C311.083 271.066 310.372 267.478 310.372 263.788C310.372 260.117 311.1 256.51 312.541 252.982C313.978 249.466 316.162 246.299 319.064 243.479C321.963 240.661 325.135 238.639 328.761 237.223C332.395 235.82 336.093 235.112 339.895 235.112Z" fill="url(#paint38_linear_179_4305)" fill-opacity="0.1" stroke="white"/>
<path d="M340.465 352.188L334.811 357.683L320.281 343.563L319.933 343.224L319.584 343.563C317.834 345.264 316.555 347.27 315.771 349.593C314.989 351.906 314.698 354.291 314.935 356.781C315.155 359.105 315.772 361.441 316.813 363.757L317.027 364.221C318.184 366.696 319.809 368.958 321.897 370.97C323.986 372.983 326.424 374.616 329.069 375.655C331.704 376.689 334.396 377.2 337.162 377.182H337.165C339.927 377.147 342.617 376.62 345.249 375.586C347.89 374.549 350.258 373.002 352.35 370.987C354.443 368.97 356.107 366.581 357.177 364.009C358.242 361.448 358.786 358.828 358.786 356.185C358.786 353.525 358.242 350.922 357.177 348.361C356.17 345.939 354.681 343.724 352.717 341.746L358.404 336.217C360.938 338.764 362.888 341.587 364.268 344.678L364.549 345.331C366.007 348.855 366.717 352.444 366.717 356.133C366.717 359.805 365.989 363.411 364.548 366.939C363.111 370.455 360.928 373.623 358.025 376.443C355.126 379.26 351.954 381.282 348.328 382.699C344.694 384.101 340.996 384.809 337.194 384.809C333.409 384.809 329.674 384.117 326.022 382.732C322.381 381.35 319.104 379.261 316.204 376.443C313.305 373.626 311.228 370.528 309.825 366.995L309.824 366.993C308.4 363.448 307.689 359.824 307.689 356.151C307.689 352.478 308.4 348.853 309.824 345.308C311.244 341.774 313.375 338.624 316.204 335.858L319.932 332.234L340.465 352.188Z" fill="url(#paint39_linear_179_4305)" fill-opacity="0.1" stroke="white"/>
<path d="M296.711 276.051L275.742 296.429C273.648 298.464 272.039 300.801 270.953 303.386C269.868 305.969 269.342 308.607 269.342 311.299C269.342 313.975 269.886 316.614 270.969 319.21C272.056 321.815 273.667 324.133 275.758 326.183C277.854 328.237 280.241 329.766 282.879 330.802C285.514 331.837 288.205 332.346 290.952 332.346C293.698 332.346 296.423 331.837 299.107 330.822C301.801 329.803 304.207 328.273 306.304 326.218C308.397 324.166 309.974 321.862 311.008 319.253L311.007 319.252C311.972 316.834 312.478 314.367 312.523 311.865L312.526 311.364C312.525 308.691 312 306.057 310.973 303.465C310 301.01 308.546 298.808 306.616 296.859L312.338 291.297C315.032 293.998 317.086 297.066 318.5 300.475V300.476C319.959 304.039 320.704 307.68 320.704 311.385C320.704 315.108 319.976 318.731 318.5 322.291L318.5 322.293C317.044 325.845 314.878 329.012 311.995 331.814C309.112 334.616 305.869 336.704 302.247 338.086C298.613 339.471 294.86 340.18 291.041 340.18C287.205 340.18 283.454 339.455 279.785 338.036H279.786C276.342 336.688 273.235 334.743 270.48 332.186L270.508 332.174L269.997 331.677C267.113 328.874 264.946 325.722 263.473 322.219C261.998 318.711 261.252 315.104 261.217 311.414C261.183 307.727 261.893 304.106 263.368 300.548L263.369 300.546C264.823 296.995 267.024 293.792 269.944 290.937L290.986 270.487L296.711 276.051Z" fill="url(#paint40_linear_179_4305)" fill-opacity="0.1" stroke="white"/>
<path d="M-7.82544 382.431C-4.22929 382.431 -0.707605 383.069 2.74194 384.318L3.4314 384.576C6.87373 385.924 9.97783 387.868 12.7322 390.423L12.7058 390.437L13.2175 390.934C16.1015 393.737 18.268 396.889 19.741 400.392C21.2164 403.901 21.9621 407.507 21.9968 411.197C22.0315 414.884 21.3217 418.505 19.8464 422.064L19.8455 422.066C18.3909 425.617 16.19 428.819 13.2703 431.673L-7.77368 452.124L-13.4983 446.56L7.47241 426.182C9.56572 424.148 11.1753 421.811 12.2615 419.225C13.3459 416.643 13.8718 414.004 13.8718 411.313C13.8718 408.636 13.3278 405.998 12.2449 403.402C11.1581 400.797 9.54716 398.477 7.45581 396.427C5.36021 394.373 2.97339 392.844 0.334717 391.808C-2.29946 390.774 -4.9913 390.264 -7.73755 390.264C-10.4833 390.264 -13.2082 390.773 -15.8918 391.789C-18.5863 392.808 -20.9932 394.338 -23.0901 396.393C-25.1825 398.444 -26.7591 400.748 -27.7932 403.357C-28.8218 405.935 -29.3294 408.571 -29.3118 411.244C-29.3118 413.918 -28.7858 416.554 -27.7581 419.147C-26.7853 421.601 -25.3312 423.803 -23.4016 425.751L-29.1252 431.314C-31.8191 428.612 -33.8727 425.543 -35.2864 422.132C-36.7451 418.571 -37.4895 414.931 -37.4895 411.227C-37.4895 407.504 -36.7621 403.881 -35.2864 400.321L-35.2854 400.319C-33.8302 396.767 -31.6636 393.599 -28.7805 390.797C-25.8974 387.996 -22.6541 385.906 -19.0315 384.525C-15.3977 383.139 -11.6453 382.431 -7.82544 382.431Z" fill="url(#paint41_linear_179_4305)" fill-opacity="0.1" stroke="white"/>
<path d="M103.563 337.82C107.348 337.82 111.083 338.511 114.735 339.897C118.376 341.279 121.653 343.368 124.553 346.186C127.452 349.003 129.529 352.101 130.932 355.634L130.933 355.636C132.357 359.181 133.068 362.805 133.068 366.478C133.068 370.151 132.357 373.776 130.933 377.321C129.513 380.855 127.382 384.005 124.553 386.771L120.824 390.394L100.291 370.44L105.946 364.945L120.476 379.066L120.824 379.405L121.173 379.066C122.923 377.365 124.202 375.359 124.987 373.036C125.768 370.723 126.059 368.338 125.823 365.848C125.602 363.524 124.985 361.188 123.944 358.872L123.73 358.409C122.573 355.933 120.949 353.671 118.86 351.659C116.771 349.646 114.333 348.013 111.688 346.974C109.053 345.94 106.361 345.43 103.595 345.448H103.592C100.831 345.483 98.1405 346.009 95.5081 347.042C92.8668 348.08 90.4995 349.627 88.4075 351.642C86.3143 353.659 84.6498 356.048 83.5803 358.62C82.5154 361.181 81.971 363.801 81.9709 366.444C81.9709 369.104 82.5154 371.708 83.5803 374.269C84.5874 376.691 86.0757 378.905 88.0393 380.883L82.3518 386.411C79.8182 383.865 77.869 381.042 76.4895 377.951L76.2083 377.298C74.7505 373.774 74.0403 370.185 74.0403 366.496C74.0403 362.824 74.7677 359.217 76.2092 355.69C77.6461 352.174 79.8296 349.006 82.7317 346.186C85.6307 343.369 88.803 341.347 92.429 339.93C96.0627 338.528 99.7614 337.82 103.563 337.82Z" fill="url(#paint42_linear_179_4305)" fill-opacity="0.1" stroke="white"/>
<path d="M149.735 382.431C153.331 382.431 156.853 383.069 160.303 384.318L160.992 384.576C164.435 385.924 167.539 387.868 170.294 390.424L170.267 390.438L170.778 390.934C173.662 393.737 175.829 396.889 177.302 400.392C178.777 403.901 179.523 407.507 179.558 411.197C179.592 414.884 178.882 418.505 177.407 422.064L177.406 422.066C175.952 425.617 173.751 428.819 170.831 431.673L149.787 452.124L144.062 446.56L165.033 426.182C167.127 424.148 168.736 421.811 169.822 419.225C170.907 416.643 171.433 414.004 171.433 411.313C171.433 408.636 170.889 405.998 169.806 403.402C168.719 400.797 167.108 398.477 165.017 396.427C162.921 394.373 160.534 392.844 157.896 391.808C155.261 390.774 152.569 390.264 149.823 390.264C147.077 390.264 144.353 390.773 141.669 391.789C138.975 392.808 136.568 394.338 134.471 396.393C132.378 398.444 130.802 400.748 129.768 403.357C128.739 405.935 128.231 408.571 128.249 411.244C128.249 413.918 128.775 416.554 129.803 419.147C130.776 421.601 132.23 423.803 134.159 425.751L128.436 431.314C125.742 428.612 123.688 425.543 122.274 422.132C120.816 418.571 120.071 414.931 120.071 411.227C120.071 407.504 120.799 403.881 122.274 400.321L122.275 400.319C123.731 396.767 125.897 393.599 128.78 390.797C131.663 387.996 134.907 385.906 138.529 384.525C142.163 383.139 145.915 382.431 149.735 382.431Z" fill="url(#paint43_linear_179_4305)" fill-opacity="0.1" stroke="white"/>
<path d="M60.3789 378.757L39.4092 399.135C37.3159 401.17 35.7063 403.507 34.6201 406.093C33.5356 408.675 33.0098 411.313 33.0098 414.005C33.0098 416.681 33.5537 419.32 34.6367 421.916C35.7234 424.521 37.3345 426.84 39.4258 428.889C41.5214 430.943 43.9081 432.472 46.5469 433.509C49.181 434.543 51.8729 435.052 54.6191 435.052C57.365 435.052 60.0906 434.543 62.7744 433.528C65.4687 432.509 67.8749 430.979 69.9717 428.924C72.0644 426.872 73.6418 424.568 74.6758 421.959L74.6748 421.958C75.6391 419.541 76.1459 417.073 76.1904 414.571L76.1934 414.07C76.1929 411.397 75.6679 408.763 74.6406 406.171C73.6678 403.716 72.2132 401.514 70.2832 399.565L76.0059 394.003C78.6994 396.704 80.7532 399.772 82.167 403.181V403.182C83.6264 406.745 84.3711 410.386 84.3711 414.091C84.3711 417.814 83.6437 421.437 82.168 424.997L82.167 424.999C80.7118 428.551 78.5452 431.719 75.6621 434.52C72.7792 437.322 69.5364 439.411 65.9141 440.792C62.2803 442.177 58.5279 442.886 54.708 442.886C50.8724 442.886 47.1211 442.161 43.4521 440.742H43.4531C40.0091 439.394 36.9029 437.449 34.1475 434.892L34.1758 434.88L33.6641 434.383C30.7803 431.58 28.6136 428.428 27.1406 424.926C25.6652 421.417 24.9194 417.81 24.8848 414.12C24.8502 410.433 25.56 406.812 27.0352 403.254L27.0361 403.252C28.4907 399.701 30.6915 396.498 33.6113 393.643L54.6533 373.193L60.3789 378.757Z" fill="url(#paint44_linear_179_4305)" fill-opacity="0.1" stroke="white"/>
<path d="M261.123 337.82C264.909 337.82 268.644 338.511 272.295 339.897C275.936 341.279 279.214 343.368 282.114 346.186C285.013 349.003 287.09 352.101 288.492 355.634L288.493 355.636C289.918 359.181 290.628 362.805 290.628 366.478C290.628 370.151 289.918 373.776 288.493 377.321C287.073 380.855 284.943 384.005 282.114 386.771L278.385 390.394L257.852 370.44L263.506 364.945L278.036 379.066L278.385 379.405L278.734 379.066C280.484 377.365 281.762 375.359 282.547 373.036C283.328 370.723 283.619 368.338 283.383 365.848C283.163 363.524 282.545 361.188 281.504 358.872L281.29 358.409C280.134 355.933 278.508 353.671 276.419 351.659C274.33 349.646 271.893 348.013 269.248 346.974C266.614 345.94 263.921 345.43 261.156 345.448H261.153C258.391 345.483 255.701 346.009 253.069 347.042C250.427 348.08 248.06 349.627 245.968 351.642C243.875 353.659 242.21 356.048 241.141 358.62C240.076 361.181 239.532 363.801 239.531 366.444C239.531 369.104 240.076 371.708 241.141 374.269C242.148 376.691 243.636 378.905 245.6 380.883L239.912 386.411C237.379 383.865 235.43 381.042 234.05 377.951L233.769 377.298C232.311 373.774 231.601 370.185 231.601 366.496C231.601 362.824 232.328 359.217 233.77 355.69C235.207 352.174 237.39 349.006 240.292 346.186C243.191 343.369 246.364 341.347 249.99 339.93C253.623 338.528 257.322 337.82 261.123 337.82Z" fill="url(#paint45_linear_179_4305)" fill-opacity="0.1" stroke="white"/>
<path d="M307.279 382.431C310.875 382.431 314.397 383.069 317.846 384.318L318.536 384.576C321.979 385.924 325.083 387.868 327.838 390.424L327.81 390.438L328.322 390.934C331.206 393.737 333.372 396.889 334.845 400.392C336.321 403.901 337.067 407.507 337.101 411.197C337.136 414.884 336.426 418.505 334.951 422.064L334.95 422.066C333.495 425.617 331.294 428.819 328.375 431.673L307.331 452.124L301.606 446.56L322.577 426.182C324.67 424.148 326.28 421.811 327.366 419.225C328.45 416.643 328.976 414.004 328.976 411.313C328.976 408.636 328.432 405.998 327.349 403.402C326.263 400.797 324.652 398.477 322.56 396.427C320.465 394.373 318.078 392.844 315.439 391.808C312.805 390.774 310.113 390.264 307.367 390.264C304.621 390.264 301.896 390.773 299.213 391.789C296.518 392.808 294.111 394.338 292.014 396.393C289.922 398.444 288.345 400.748 287.311 403.357C286.283 405.935 285.775 408.571 285.793 411.244C285.793 413.918 286.319 416.554 287.346 419.147C288.319 421.601 289.773 423.803 291.703 425.751L285.979 431.314C283.285 428.612 281.232 425.543 279.818 422.132C278.359 418.571 277.615 414.931 277.615 411.227C277.615 407.504 278.342 403.881 279.818 400.321L279.819 400.319C281.274 396.767 283.441 393.599 286.324 390.797C289.207 387.996 292.45 385.906 296.073 384.525C299.707 383.139 303.459 382.431 307.279 382.431Z" fill="url(#paint46_linear_179_4305)" fill-opacity="0.1" stroke="white"/>
<path d="M217.94 378.757L196.971 399.136C194.877 401.171 193.268 403.507 192.182 406.093C191.097 408.675 190.571 411.314 190.571 414.005C190.571 416.682 191.115 419.32 192.198 421.917C193.285 424.521 194.896 426.84 196.987 428.89C199.083 430.944 201.47 432.473 204.108 433.509C206.743 434.544 209.434 435.053 212.181 435.053C214.927 435.053 217.652 434.544 220.336 433.529C223.03 432.51 225.436 430.979 227.533 428.924C229.626 426.873 231.203 424.569 232.237 421.959L232.236 421.958C233.201 419.541 233.707 417.074 233.752 414.572L233.755 414.071C233.754 411.398 233.229 408.764 232.202 406.171C231.229 403.717 229.775 401.514 227.845 399.566L233.567 394.003C236.261 396.705 238.315 399.773 239.729 403.182V403.183C241.188 406.746 241.933 410.387 241.933 414.091C241.933 417.814 241.205 421.438 239.729 424.998L239.729 425C238.273 428.552 236.107 431.719 233.224 434.521C230.341 437.323 227.098 439.411 223.476 440.792C219.842 442.178 216.089 442.887 212.27 442.887C208.434 442.887 204.683 442.162 201.014 440.743H201.015C197.571 439.394 194.464 437.45 191.709 434.893L191.737 434.88L191.226 434.383C188.342 431.581 186.175 428.429 184.702 424.926C183.227 421.418 182.481 417.811 182.446 414.121C182.412 410.434 183.122 406.813 184.597 403.254L184.598 403.252C186.052 399.702 188.253 396.499 191.173 393.644L212.215 373.194L217.94 378.757Z" fill="url(#paint47_linear_179_4305)" fill-opacity="0.1" stroke="white"/>
<path d="M375.483 378.757L354.515 399.135C352.421 401.17 350.811 403.507 349.725 406.093C348.64 408.675 348.114 411.313 348.114 414.005C348.114 416.681 348.658 419.32 349.741 421.916C350.828 424.521 352.439 426.84 354.53 428.889C356.626 430.943 359.013 432.472 361.651 433.509C364.286 434.543 366.977 435.052 369.724 435.052C372.47 435.052 375.195 434.543 377.879 433.528C380.573 432.509 382.979 430.979 385.076 428.924C387.169 426.872 388.746 424.568 389.78 421.959L389.779 421.958C390.744 419.541 391.25 417.073 391.295 414.571L391.298 414.07C391.297 411.397 390.772 408.763 389.745 406.171C388.772 403.716 387.318 401.514 385.388 399.565L391.11 394.003C393.804 396.704 395.858 399.772 397.271 403.181V403.182C398.731 406.745 399.476 410.386 399.476 414.091C399.476 417.814 398.748 421.437 397.272 424.997L397.271 424.999C395.816 428.551 393.65 431.719 390.767 434.52C387.884 437.322 384.641 439.411 381.019 440.792C377.385 442.177 373.632 442.886 369.812 442.886C365.977 442.886 362.226 442.161 358.557 440.742H358.558C355.114 439.394 352.007 437.449 349.252 434.892L349.28 434.88L348.769 434.383C345.885 431.58 343.718 428.428 342.245 424.926C340.77 421.417 340.024 417.81 339.989 414.12C339.955 410.433 340.665 406.812 342.14 403.254L342.141 403.252C343.595 399.701 345.796 396.498 348.716 393.643L369.759 373.193L375.483 378.757Z" fill="url(#paint48_linear_179_4305)" fill-opacity="0.1" stroke="white"/>
</g>
<defs>
<linearGradient id="paint0_linear_179_4305" x1="347" y1="342.224" x2="-10.7109" y2="65.6277" gradientUnits="userSpaceOnUse">
<stop offset="0.4028" stop-color="#010101"/>
<stop offset="1" stop-color="#0D385A"/>
</linearGradient>
<linearGradient id="paint1_linear_179_4305" x1="22.498" y1="32.7144" x2="-41.3217" y2="-15.0957" gradientUnits="userSpaceOnUse">
<stop offset="0.4028" stop-color="#010101"/>
<stop offset="1" stop-color="#0D385A"/>
</linearGradient>
<linearGradient id="paint2_linear_179_4305" x1="180.059" y1="32.7144" x2="116.239" y2="-15.0957" gradientUnits="userSpaceOnUse">
<stop offset="0.4028" stop-color="#010101"/>
<stop offset="1" stop-color="#0D385A"/>
</linearGradient>
<linearGradient id="paint3_linear_179_4305" x1="130.903" y1="70.1423" x2="80.471" y2="20.713" gradientUnits="userSpaceOnUse">
<stop offset="0.4028" stop-color="#010101"/>
<stop offset="1" stop-color="#0D385A"/>
</linearGradient>
<linearGradient id="paint4_linear_179_4305" x1="84.8713" y1="23.2801" x2="21.0516" y2="-24.53" gradientUnits="userSpaceOnUse">
<stop offset="0.4028" stop-color="#010101"/>
<stop offset="1" stop-color="#0D385A"/>
</linearGradient>
<linearGradient id="paint5_linear_179_4305" x1="337.603" y1="32.7144" x2="273.783" y2="-15.0958" gradientUnits="userSpaceOnUse">
<stop offset="0.4028" stop-color="#010101"/>
<stop offset="1" stop-color="#0D385A"/>
</linearGradient>
<linearGradient id="paint6_linear_179_4305" x1="288.446" y1="70.1423" x2="238.013" y2="20.713" gradientUnits="userSpaceOnUse">
<stop offset="0.4028" stop-color="#010101"/>
<stop offset="1" stop-color="#0D385A"/>
</linearGradient>
<linearGradient id="paint7_linear_179_4305" x1="242.433" y1="23.2801" x2="178.613" y2="-24.53" gradientUnits="userSpaceOnUse">
<stop offset="0.4028" stop-color="#010101"/>
<stop offset="1" stop-color="#0D385A"/>
</linearGradient>
<linearGradient id="paint8_linear_179_4305" x1="399.976" y1="23.2801" x2="336.156" y2="-24.5301" gradientUnits="userSpaceOnUse">
<stop offset="0.4028" stop-color="#010101"/>
<stop offset="1" stop-color="#0D385A"/>
</linearGradient>
<linearGradient id="paint9_linear_179_4305" x1="54.7961" y1="75.9221" x2="4.36403" y2="26.4928" gradientUnits="userSpaceOnUse">
<stop offset="0.4028" stop-color="#010101"/>
<stop offset="1" stop-color="#0D385A"/>
</linearGradient>
<linearGradient id="paint10_linear_179_4305" x1="101.27" y1="135.403" x2="37.4507" y2="87.593" gradientUnits="userSpaceOnUse">
<stop offset="0.4028" stop-color="#010101"/>
<stop offset="1" stop-color="#0D385A"/>
</linearGradient>
<linearGradient id="paint11_linear_179_4305" x1="52.1319" y1="172.849" x2="1.69975" y2="123.419" gradientUnits="userSpaceOnUse">
<stop offset="0.4028" stop-color="#010101"/>
<stop offset="1" stop-color="#0D385A"/>
</linearGradient>
<linearGradient id="paint12_linear_179_4305" x1="6.10028" y1="125.969" x2="-57.7194" y2="78.1587" gradientUnits="userSpaceOnUse">
<stop offset="0.4028" stop-color="#010101"/>
<stop offset="1" stop-color="#0D385A"/>
</linearGradient>
<linearGradient id="paint13_linear_179_4305" x1="212.34" y1="75.9211" x2="161.908" y2="26.4918" gradientUnits="userSpaceOnUse">
<stop offset="0.4028" stop-color="#010101"/>
<stop offset="1" stop-color="#0D385A"/>
</linearGradient>
<linearGradient id="paint14_linear_179_4305" x1="258.831" y1="135.402" x2="195.011" y2="87.5922" gradientUnits="userSpaceOnUse">
<stop offset="0.4028" stop-color="#010101"/>
<stop offset="1" stop-color="#0D385A"/>
</linearGradient>
<linearGradient id="paint15_linear_179_4305" x1="209.674" y1="172.848" x2="159.242" y2="123.419" gradientUnits="userSpaceOnUse">
<stop offset="0.4028" stop-color="#010101"/>
<stop offset="1" stop-color="#0D385A"/>
</linearGradient>
<linearGradient id="paint16_linear_179_4305" x1="163.661" y1="125.969" x2="99.8416" y2="78.1585" gradientUnits="userSpaceOnUse">
<stop offset="0.4028" stop-color="#010101"/>
<stop offset="1" stop-color="#0D385A"/>
</linearGradient>
<linearGradient id="paint17_linear_179_4305" x1="369.9" y1="75.9221" x2="319.468" y2="26.4928" gradientUnits="userSpaceOnUse">
<stop offset="0.4028" stop-color="#010101"/>
<stop offset="1" stop-color="#0D385A"/>
</linearGradient>
<linearGradient id="paint18_linear_179_4305" x1="367.217" y1="172.849" x2="316.785" y2="123.419" gradientUnits="userSpaceOnUse">
<stop offset="0.4028" stop-color="#010101"/>
<stop offset="1" stop-color="#0D385A"/>
</linearGradient>
<linearGradient id="paint19_linear_179_4305" x1="321.204" y1="125.969" x2="257.384" y2="78.1587" gradientUnits="userSpaceOnUse">
<stop offset="0.4028" stop-color="#010101"/>
<stop offset="1" stop-color="#0D385A"/>
</linearGradient>
<linearGradient id="paint20_linear_179_4305" x1="22.498" y1="238.109" x2="-41.3217" y2="190.299" gradientUnits="userSpaceOnUse">
<stop offset="0.4028" stop-color="#010101"/>
<stop offset="1" stop-color="#0D385A"/>
</linearGradient>
<linearGradient id="paint21_linear_179_4305" x1="133.568" y1="178.629" x2="83.1355" y2="129.2" gradientUnits="userSpaceOnUse">
<stop offset="0.4028" stop-color="#010101"/>
<stop offset="1" stop-color="#0D385A"/>
</linearGradient>
<linearGradient id="paint22_linear_179_4305" x1="180.059" y1="238.109" x2="116.239" y2="190.299" gradientUnits="userSpaceOnUse">
<stop offset="0.4028" stop-color="#010101"/>
<stop offset="1" stop-color="#0D385A"/>
</linearGradient>
<linearGradient id="paint23_linear_179_4305" x1="130.903" y1="275.538" x2="80.471" y2="226.108" gradientUnits="userSpaceOnUse">
<stop offset="0.4028" stop-color="#010101"/>
<stop offset="1" stop-color="#0D385A"/>
</linearGradient>
<linearGradient id="paint24_linear_179_4305" x1="84.8713" y1="228.676" x2="21.0516" y2="180.866" gradientUnits="userSpaceOnUse">
<stop offset="0.4028" stop-color="#010101"/>
<stop offset="1" stop-color="#0D385A"/>
</linearGradient>
<linearGradient id="paint25_linear_179_4305" x1="291.128" y1="178.629" x2="240.696" y2="129.2" gradientUnits="userSpaceOnUse">
<stop offset="0.4028" stop-color="#010101"/>
<stop offset="1" stop-color="#0D385A"/>
</linearGradient>
<linearGradient id="paint26_linear_179_4305" x1="337.603" y1="238.109" x2="273.783" y2="190.299" gradientUnits="userSpaceOnUse">
<stop offset="0.4028" stop-color="#010101"/>
<stop offset="1" stop-color="#0D385A"/>
</linearGradient>
<linearGradient id="paint27_linear_179_4305" x1="288.446" y1="275.538" x2="238.013" y2="226.108" gradientUnits="userSpaceOnUse">
<stop offset="0.4028" stop-color="#010101"/>
<stop offset="1" stop-color="#0D385A"/>
</linearGradient>
<linearGradient id="paint28_linear_179_4305" x1="242.433" y1="228.676" x2="178.613" y2="180.866" gradientUnits="userSpaceOnUse">
<stop offset="0.4028" stop-color="#010101"/>
<stop offset="1" stop-color="#0D385A"/>
</linearGradient>
<linearGradient id="paint29_linear_179_4305" x1="399.976" y1="228.676" x2="336.156" y2="180.866" gradientUnits="userSpaceOnUse">
<stop offset="0.4028" stop-color="#010101"/>
<stop offset="1" stop-color="#0D385A"/>
</linearGradient>
<linearGradient id="paint30_linear_179_4305" x1="54.7961" y1="281.318" x2="4.36403" y2="231.889" gradientUnits="userSpaceOnUse">
<stop offset="0.4028" stop-color="#010101"/>
<stop offset="1" stop-color="#0D385A"/>
</linearGradient>
<linearGradient id="paint31_linear_179_4305" x1="101.27" y1="340.815" x2="37.4507" y2="293.005" gradientUnits="userSpaceOnUse">
<stop offset="0.4028" stop-color="#010101"/>
<stop offset="1" stop-color="#0D385A"/>
</linearGradient>
<linearGradient id="paint32_linear_179_4305" x1="52.1319" y1="378.243" x2="1.69974" y2="328.814" gradientUnits="userSpaceOnUse">
<stop offset="0.4028" stop-color="#010101"/>
<stop offset="1" stop-color="#0D385A"/>
</linearGradient>
<linearGradient id="paint33_linear_179_4305" x1="6.10028" y1="331.365" x2="-57.7194" y2="283.554" gradientUnits="userSpaceOnUse">
<stop offset="0.4028" stop-color="#010101"/>
<stop offset="1" stop-color="#0D385A"/>
</linearGradient>
<linearGradient id="paint34_linear_179_4305" x1="212.34" y1="281.317" x2="161.908" y2="231.888" gradientUnits="userSpaceOnUse">
<stop offset="0.4028" stop-color="#010101"/>
<stop offset="1" stop-color="#0D385A"/>
</linearGradient>
<linearGradient id="paint35_linear_179_4305" x1="258.831" y1="340.815" x2="195.011" y2="293.005" gradientUnits="userSpaceOnUse">
<stop offset="0.4028" stop-color="#010101"/>
<stop offset="1" stop-color="#0D385A"/>
</linearGradient>
<linearGradient id="paint36_linear_179_4305" x1="209.674" y1="378.243" x2="159.242" y2="328.814" gradientUnits="userSpaceOnUse">
<stop offset="0.4028" stop-color="#010101"/>
<stop offset="1" stop-color="#0D385A"/>
</linearGradient>
<linearGradient id="paint37_linear_179_4305" x1="163.661" y1="331.364" x2="99.8416" y2="283.554" gradientUnits="userSpaceOnUse">
<stop offset="0.4028" stop-color="#010101"/>
<stop offset="1" stop-color="#0D385A"/>
</linearGradient>
<linearGradient id="paint38_linear_179_4305" x1="369.9" y1="281.318" x2="319.468" y2="231.889" gradientUnits="userSpaceOnUse">
<stop offset="0.4028" stop-color="#010101"/>
<stop offset="1" stop-color="#0D385A"/>
</linearGradient>
<linearGradient id="paint39_linear_179_4305" x1="367.217" y1="378.243" x2="316.785" y2="328.814" gradientUnits="userSpaceOnUse">
<stop offset="0.4028" stop-color="#010101"/>
<stop offset="1" stop-color="#0D385A"/>
</linearGradient>
<linearGradient id="paint40_linear_179_4305" x1="321.204" y1="331.365" x2="257.384" y2="283.554" gradientUnits="userSpaceOnUse">
<stop offset="0.4028" stop-color="#010101"/>
<stop offset="1" stop-color="#0D385A"/>
</linearGradient>
<linearGradient id="paint41_linear_179_4305" x1="22.498" y1="443.505" x2="-41.3217" y2="395.695" gradientUnits="userSpaceOnUse">
<stop offset="0.4028" stop-color="#010101"/>
<stop offset="1" stop-color="#0D385A"/>
</linearGradient>
<linearGradient id="paint42_linear_179_4305" x1="133.568" y1="384.025" x2="83.1355" y2="334.596" gradientUnits="userSpaceOnUse">
<stop offset="0.4028" stop-color="#010101"/>
<stop offset="1" stop-color="#0D385A"/>
</linearGradient>
<linearGradient id="paint43_linear_179_4305" x1="180.059" y1="443.505" x2="116.239" y2="395.695" gradientUnits="userSpaceOnUse">
<stop offset="0.4028" stop-color="#010101"/>
<stop offset="1" stop-color="#0D385A"/>
</linearGradient>
<linearGradient id="paint44_linear_179_4305" x1="84.8713" y1="434.071" x2="21.0516" y2="386.261" gradientUnits="userSpaceOnUse">
<stop offset="0.4028" stop-color="#010101"/>
<stop offset="1" stop-color="#0D385A"/>
</linearGradient>
<linearGradient id="paint45_linear_179_4305" x1="291.128" y1="384.025" x2="240.696" y2="334.596" gradientUnits="userSpaceOnUse">
<stop offset="0.4028" stop-color="#010101"/>
<stop offset="1" stop-color="#0D385A"/>
</linearGradient>
<linearGradient id="paint46_linear_179_4305" x1="337.603" y1="443.505" x2="273.783" y2="395.695" gradientUnits="userSpaceOnUse">
<stop offset="0.4028" stop-color="#010101"/>
<stop offset="1" stop-color="#0D385A"/>
</linearGradient>
<linearGradient id="paint47_linear_179_4305" x1="242.433" y1="434.071" x2="178.613" y2="386.261" gradientUnits="userSpaceOnUse">
<stop offset="0.4028" stop-color="#010101"/>
<stop offset="1" stop-color="#0D385A"/>
</linearGradient>
<linearGradient id="paint48_linear_179_4305" x1="399.976" y1="434.071" x2="336.156" y2="386.26" gradientUnits="userSpaceOnUse">
<stop offset="0.4028" stop-color="#010101"/>
<stop offset="1" stop-color="#0D385A"/>
</linearGradient>
</defs>
</svg>
