<svg width="95" height="44" viewBox="0 0 95 44" fill="none" xmlns="http://www.w3.org/2000/svg">
<path d="M21.7022 43.4045C18.6904 43.4045 15.8756 42.8415 13.239 41.7156C10.6025 40.5896 8.30371 39.0415 6.33334 37.0711C4.36296 35.1007 2.81482 32.802 1.68889 30.1654C0.562963 27.5289 0 24.7141 0 21.7022C0 18.6904 0.562963 15.96 1.68889 13.3235C2.81482 10.6869 4.36296 8.38815 6.33334 6.42716C8.30371 4.45679 10.6025 2.89926 13.239 1.7358C15.8756 0.581729 18.6904 0 21.7022 0C24.7141 0 27.4445 0.581729 30.081 1.7358C32.7175 2.89926 35.0163 4.45679 36.9867 6.42716C38.957 8.39753 40.5146 10.6963 41.678 13.3235C42.8321 15.96 43.4138 18.7467 43.4138 21.7022V25.8682H21.7116V19.3566H36.9022C36.9022 17.6207 36.5082 15.9694 35.7294 14.4119C34.9506 12.8449 33.8622 11.4938 32.4736 10.3304C31.0849 9.1763 29.4617 8.24741 27.6133 7.55309C25.7556 6.85877 23.7946 6.51161 21.7116 6.51161C19.6286 6.51161 17.5738 6.90568 15.7254 7.68445C13.8677 8.46321 12.2632 9.55161 10.9027 10.9403C9.54222 12.3289 8.4726 13.9521 7.69383 15.8005C6.91506 17.6489 6.52099 19.6193 6.52099 21.7022C6.52099 23.7852 6.91506 25.84 7.69383 27.6884C8.4726 29.5368 9.54222 31.1506 10.9027 32.5017C12.2632 33.8622 13.8677 34.9319 15.7254 35.7106C17.5738 36.4894 19.5724 36.8835 21.7116 36.8835V43.3951L21.7022 43.4045Z" fill="white"/>
<path d="M73.4291 0.131592C76.3847 0.131592 79.1713 0.685172 81.7797 1.78295C84.3881 2.88073 86.6775 4.40073 88.6479 6.34295C90.6183 8.28517 92.1664 10.5652 93.3017 13.2017C94.437 15.8383 95 18.6531 95 21.6649V43.2827H88.4884V21.7212C88.4884 19.6476 88.0943 17.6773 87.3155 15.8289C86.5368 13.9805 85.4671 12.376 84.1066 11.0249C82.7461 9.66443 81.1417 8.60419 79.2839 7.81604C77.4355 7.03727 75.4652 6.6432 73.3822 6.6432C71.2992 6.6432 69.3476 7.03727 67.518 7.81604C65.6977 8.5948 64.1027 9.66443 62.7422 11.0155C61.3817 12.376 60.2933 13.9711 59.4864 15.8195C58.6795 17.6679 58.276 19.6289 58.276 21.7025C58.276 23.776 58.6795 25.7276 59.4864 27.5479C60.2933 29.3681 61.3817 30.9538 62.7422 32.3049C64.1027 33.6654 65.6977 34.7444 67.518 35.5514C69.3382 36.3583 71.2898 36.7617 73.3822 36.7617V43.2733C70.4266 43.2733 67.64 42.7104 65.0034 41.5844C62.3669 40.4585 60.0681 38.9104 58.0977 36.94C56.1274 34.9696 54.5792 32.6709 53.4533 30.0343C52.3274 27.3978 51.7644 24.6111 51.7644 21.6555C51.7644 18.7 52.3274 15.9227 53.4627 13.3237C54.598 10.7153 56.1461 8.4353 58.1165 6.46493C60.0869 4.49456 62.395 2.94641 65.0316 1.82048C67.6681 0.694555 70.4642 0.131592 73.4291 0.131592Z" fill="white"/>
</svg>
