<svg width="295" height="21" viewBox="0 0 295 21" fill="none" xmlns="http://www.w3.org/2000/svg">
<path d="M0 20.3933V17.4817H11.6503C13.5927 17.4817 14.5618 16.5126 14.5618 14.5702V5.82725C14.5618 1.94242 16.9888 0 21.8469 0H33.4972V2.91152H21.8469C19.9045 2.91152 18.9354 3.88062 18.9354 5.82303V14.5618C18.9354 18.4466 16.5084 20.389 11.6503 20.389H0V20.3933Z" fill="white"/>
<path d="M40.7822 20.3933H36.4128V14.566C36.4128 10.6812 38.8398 8.73876 43.6937 8.73876H59.7176C61.66 8.73876 62.6291 7.76966 62.6291 5.82725C62.6291 3.88483 61.66 2.91573 59.7176 2.91573H36.4128V0H59.7176C64.5715 0 67.0027 1.94242 67.0027 5.82725C67.0027 9.71208 64.5758 11.6545 59.7176 11.6545H43.6937C41.7513 11.6545 40.7822 12.6236 40.7822 14.566V20.3933Z" fill="white"/>
<path d="M91.9088 20.3933H86.9579L84.7711 17.4817H66.8554L64.8456 20.3933H61.3484L74.4902 1.45787C75.1602 0.488764 75.9228 0 76.7782 0C77.09 0 77.3765 0.198034 77.6377 0.598315L91.913 20.3933H91.9088ZM75.7416 5.30478C75.5562 4.89607 75.2023 5.07303 74.6798 5.82725L68.604 14.566H82.4284L75.7416 5.30056V5.30478Z" fill="white"/>
<path d="M92.2584 5.82725C92.2584 1.94242 94.6854 0 99.5393 0H122.844V2.91152H99.5393C97.5969 2.91152 96.6278 3.88062 96.6278 5.82303V14.5618C96.6278 16.5042 97.5969 17.4733 99.5393 17.4733H122.844V20.3848H99.5393C94.6854 20.3848 92.2584 18.4424 92.2584 14.5576V5.82725Z" fill="white"/>
<path d="M130.129 0V20.3933H125.76V0H130.129Z" fill="white"/>
<path d="M140.326 20.3933C135.472 20.3933 133.045 18.4508 133.045 14.566V5.82725C133.045 1.94242 135.472 0 140.326 0H156.35C161.204 0 163.635 1.94242 163.635 5.82725V14.566C163.635 18.4508 161.208 20.3933 156.35 20.3933H140.326ZM140.326 2.91573C138.383 2.91573 137.414 3.88483 137.414 5.82725V14.566C137.414 16.5084 138.383 17.4775 140.326 17.4775H156.35C158.292 17.4775 159.261 16.5084 159.261 14.566V5.82725C159.261 3.88483 158.292 2.91573 156.35 2.91573H140.326Z" fill="white"/>
<path d="M165.788 20.3933V17.4817H177.442C179.385 17.4817 180.354 16.5126 180.354 14.5702V5.82725C180.354 1.94242 182.781 0 187.635 0H199.289V2.91152H187.635C185.692 2.91152 184.723 3.88062 184.723 5.82303V14.5618C184.723 18.4466 182.296 20.389 177.438 20.389H165.784L165.788 20.3933Z" fill="white"/>
<path d="M230.33 13.7193L219.274 5.56199C218.874 5.38502 218.676 5.67997 218.676 6.43418V21.0002H214.306V2.0648C214.306 1.0957 214.791 0.606934 215.764 0.606934C216.114 0.606934 216.598 0.804967 217.222 1.20525L230.33 10.8036C231.299 11.3471 232.273 11.3513 233.242 10.8162V10.8036L246.35 1.20525C246.969 0.804967 247.458 0.606934 247.808 0.606934C248.777 0.606934 249.266 1.09148 249.266 2.0648V21.0002H244.896V6.43418C244.896 5.67575 244.698 5.38502 244.298 5.56199L233.259 13.7024V13.7193C232.277 14.4861 231.303 14.4861 230.33 13.7193Z" fill="white"/>
<path d="M282.767 15.1729C282.767 19.0578 280.34 21.0002 275.482 21.0002H252.177V18.0887H275.482C277.424 18.0887 278.393 17.1196 278.393 15.1772C278.393 13.2347 277.424 12.2656 275.482 12.2656H252.177V9.35412H275.482C277.424 9.35412 278.393 8.38502 278.393 6.44261C278.393 4.50019 277.424 3.53109 275.482 3.53109H252.177V0.606934H275.482C280.336 0.606934 282.767 2.54935 282.767 6.43418C282.767 8.3766 282.16 9.83446 280.947 10.8036C282.16 11.7727 282.767 13.2305 282.767 15.1729Z" fill="white"/>
<path d="M290.596 21.0001C292.587 21.0001 294.202 19.3853 294.202 17.3934C294.202 15.4014 292.587 13.7866 290.596 13.7866C288.604 13.7866 286.989 15.4014 286.989 17.3934C286.989 19.3853 288.604 21.0001 290.596 21.0001Z" fill="white"/>
</svg>
