<svg width="96" height="72" viewBox="0 0 96 72" fill="none" xmlns="http://www.w3.org/2000/svg">
<path d="M38.8566 42.537L37.1046 43.8176L36.7142 43.2844L37.9092 42.4132L37.3474 41.6467L36.3286 42.3894L35.9478 41.8705L36.9665 41.1278L36.3334 40.2661L35.1384 41.1421L34.748 40.6089L36.5 39.3282L38.8566 42.5513V42.537Z" fill="white"/>
<path d="M34.7621 42.0419C34.5765 41.7611 34.2956 41.5611 33.9004 41.7896C33.6338 41.9467 33.5624 42.1705 33.71 42.418C33.9099 42.7656 34.2242 42.7037 34.5669 42.6608C35.2953 42.5513 35.8095 42.6608 36.1189 43.194C36.4617 43.7891 36.2237 44.4175 35.6381 44.7603C35.024 45.1174 34.367 44.8841 34.0099 44.3033L34.6003 43.9605C34.7669 44.2176 35.0002 44.3747 35.3191 44.189C35.5905 44.0319 35.6619 43.7796 35.5191 43.5368C35.3667 43.2702 35.024 43.3035 34.6812 43.3559C33.9052 43.4749 33.4339 43.3273 33.1149 42.7703C32.7626 42.161 32.9626 41.5801 33.5719 41.2279C34.2384 40.8422 34.9668 41.0707 35.3572 41.7039L34.7621 42.0467V42.0419Z" fill="white"/>
<path d="M31.7725 46.5885L31.5011 45.9791L32.4009 45.5792L31.0488 42.5371L31.6725 42.261L33.0245 45.3031L33.91 44.9079L34.1814 45.5173L31.7725 46.5885Z" fill="white"/>
<path d="M30.0981 47.193C29.0269 47.5263 28.4319 46.4646 28.1605 45.5982C27.8701 44.6841 27.9082 43.5939 28.8794 43.2892C29.9315 42.9607 30.5409 43.97 30.8313 44.9079C31.0979 45.7743 31.0741 46.8931 30.0981 47.193ZM29.0793 43.9319C28.4414 44.1319 28.7223 45.0745 28.8556 45.503C28.9889 45.9362 29.3126 46.7312 29.8982 46.5456C30.5218 46.3504 30.2647 45.4268 30.1171 44.9602C29.9838 44.5365 29.6601 43.751 29.0793 43.9319Z" fill="white"/>
<path d="M28.4729 47.6358L27.7397 47.7691L26.7971 46.1695L26.4686 47.9977L25.7402 48.131L26.3163 45.4364L26.0544 44.0082L26.7352 43.8844L26.9923 45.3126L28.4729 47.6358Z" fill="white"/>
<path d="M23.7139 48.2499L21.543 48.2165L21.5525 47.5548L23.0331 47.5786L23.0474 46.6265L21.7858 46.6074L21.7953 45.9647L23.0569 45.9838L23.0712 44.9126L21.5858 44.8888L21.5953 44.2271L23.771 44.2604L23.7091 48.2499H23.7139Z" fill="white"/>
<path d="M21.5135 44.2318L20.8756 48.1832L20.2043 48.0737L19.3522 45.3458L18.9475 47.8738L18.2715 47.7643L18.9094 43.8129L19.5759 43.9224L20.4281 46.6503L20.8328 44.1271L21.5088 44.2366L21.5135 44.2318Z" fill="white"/>
<path d="M16.7723 45.3935C16.6438 45.7172 16.4772 46.0314 16.2344 46.2885C15.9154 46.636 15.4203 46.9407 14.8062 46.6979C13.9207 46.3456 13.954 45.4697 14.1206 44.9031L14.7586 45.1555C14.7062 45.3792 14.6491 45.622 14.7919 45.822C14.8442 45.9172 14.9252 45.9838 15.0347 46.0267C15.0728 46.041 15.1108 46.0552 15.1585 46.0648C15.3013 46.0838 15.4298 46.0362 15.5393 45.9743C15.7107 45.8839 15.8583 45.6839 15.9725 45.4601C16.0868 45.2412 16.1772 45.0079 16.2391 44.8317C16.3867 44.4175 16.6152 43.732 16.0725 43.5178C15.6393 43.3464 15.3965 43.6511 15.2489 43.9415L14.611 43.6892C14.8728 43.1607 15.4584 42.5513 16.3201 42.8941C16.5867 42.9989 16.7771 43.1655 16.9056 43.3797C17.2294 43.932 17.058 44.6699 16.858 45.184L16.7723 45.3935Z" fill="white"/>
<path d="M15.2533 42.5466L12.2302 45.4221L11.6875 45.1127L12.6206 41.0422L13.2538 41.4041L13.0443 42.2086L14.0298 42.7704L14.6153 42.18L15.2485 42.5419L15.2533 42.5466ZM12.8682 42.8751L12.5016 44.3033L13.5489 43.2655L12.8682 42.8751Z" fill="white"/>
<path d="M10.2115 44.1937L9.66406 43.7843L11.654 41.1373L10.5448 40.3042L10.9542 39.7567L12.6062 40.9993L10.2068 44.1937H10.2115Z" fill="white"/>
<path d="M7.43163 41.9277L8.83605 39.3284L6.20813 40.6852L5.60352 40.071L8.45519 37.2717L8.93602 37.7621L7.12219 39.5331L9.50731 38.3429L9.85008 38.6904L8.51232 41.147L10.4118 39.2665L10.8879 39.7521L8.03624 42.5514L7.43163 41.9372V41.9277Z" fill="white"/>
<path d="M8.49766 37.2955L4.5415 38.6285L4.17969 38.1191L6.74572 34.8247L7.16942 35.4198L6.64098 36.0625L7.29796 36.9908L8.07872 36.7052L8.50243 37.3003L8.49766 37.2955ZM6.19824 36.5862L5.26513 37.7287L6.6505 37.2289L6.19824 36.5862Z" fill="white"/>
<path d="M2.66211 35.6675L2.35742 34.9914L3.67614 33.687L1.82422 33.8108L1.51953 33.1348L4.27123 33.0395L5.59471 32.4397L5.88035 33.0729L4.55687 33.6727L2.66687 35.6722L2.66211 35.6675Z" fill="white"/>
<path d="M2.75113 30.8828C2.40836 30.959 2.05607 31.0018 1.70853 30.9494C1.24198 30.8828 0.708781 30.6495 0.561198 30.0068C0.346966 29.0785 1.08964 28.6119 1.64664 28.4215L1.79899 29.088C1.58475 29.1689 1.35148 29.2642 1.26579 29.4974C1.21818 29.5974 1.20866 29.6974 1.23246 29.8116C1.24198 29.8497 1.25626 29.8926 1.27055 29.9354C1.33244 30.064 1.44669 30.1401 1.56095 30.1973C1.73234 30.2829 1.97989 30.2925 2.22745 30.2591C2.47025 30.2306 2.71781 30.1687 2.89395 30.1163C3.31766 30.0068 4.01272 29.8021 3.88418 29.2356C3.77945 28.7786 3.39383 28.75 3.0701 28.7976L2.91776 28.1311C3.49857 28.0454 4.33645 28.1835 4.54116 29.088C4.60781 29.3689 4.57925 29.6164 4.47451 29.845C4.20315 30.4258 3.49856 30.7067 2.9606 30.8304L2.74161 30.8828H2.75113Z" fill="white"/>
<path d="M0.0615963 26.7839C-0.0288575 25.6651 1.13752 25.3128 2.04206 25.2367C2.99896 25.1557 4.05584 25.4271 4.14154 26.4411C4.23199 27.5409 3.11322 27.917 2.13727 27.9931C1.23273 28.0645 0.147289 27.7932 0.0615963 26.7791V26.7839ZM3.47027 26.4983C3.41315 25.8318 2.43244 25.8984 1.98493 25.9365C1.53266 25.9746 0.685251 26.1174 0.737619 26.7268C0.789987 27.379 1.75165 27.3266 2.23725 27.2885C2.67999 27.2505 3.51788 27.1029 3.47027 26.4983Z" fill="white"/>
<path d="M3.98949 24.8938L0 24.6081L0.0476072 23.9321L2.68981 22.8419L0.138061 22.661L0.185668 21.9802L4.17516 22.2659L4.12755 22.9371L1.49011 24.0273L4.03709 24.2082L3.98949 24.8938Z" fill="white"/>
<path d="M2.39482 20.2663C2.05681 20.1711 1.72832 20.0378 1.44743 19.8283C1.06657 19.5474 0.714281 19.0904 0.890428 18.4525C1.14751 17.5337 2.01872 17.4765 2.59953 17.5813L2.41386 18.243C2.18534 18.2144 1.93779 18.1859 1.75212 18.3477C1.66167 18.4096 1.60454 18.4953 1.57121 18.6096C1.56169 18.6477 1.55217 18.6905 1.54741 18.7381C1.54265 18.8809 1.60454 19.0047 1.67595 19.1095C1.78544 19.2713 1.99968 19.3951 2.23295 19.4856C2.46147 19.576 2.70426 19.6427 2.88517 19.6807C3.30888 19.7855 4.01822 19.9426 4.17533 19.3808C4.29911 18.9285 3.97538 18.7191 3.67069 18.6048L3.85636 17.9431C4.4086 18.1478 5.0751 18.6667 4.82755 19.5617C4.75137 19.8378 4.60855 20.0426 4.40384 20.1949C3.88968 20.5758 3.13749 20.4853 2.60429 20.3377L2.3853 20.2758L2.39482 20.2663Z" fill="white"/>
<path d="M1.98584 15.3725C2.43334 14.3394 3.62829 14.5822 4.46141 14.9393C5.34691 15.3201 6.15147 16.0533 5.74681 16.9911C5.30882 18.0004 4.1472 17.81 3.24743 17.4196C2.4143 17.0578 1.58593 16.3103 1.9906 15.3725H1.98584ZM5.12791 16.7245C5.39451 16.1104 4.49474 15.7057 4.08531 15.5296C3.66637 15.3487 2.85705 15.0773 2.60949 15.6391C2.34765 16.2389 3.21886 16.6484 3.67113 16.8388C4.08055 17.0149 4.88988 17.2815 5.12791 16.7198V16.7245Z" fill="white"/>
<path d="M6.34117 15.5343L2.92773 13.4538L3.28003 12.8778L6.12694 13.1206L3.94653 11.7876L4.30358 11.2068L7.71702 13.2872L7.36473 13.8633L4.52258 13.6205L6.70299 14.9487L6.34593 15.5343H6.34117Z" fill="white"/>
<path d="M4.61719 10.7402L5.09326 10.1594L7.77355 11.4401L5.9978 9.05493L6.47387 8.47888L8.85899 11.8733L8.41148 12.416L4.61719 10.7402Z" fill="white"/>
<path d="M10.1918 10.464L9.70617 10.9448L6.89258 8.10266L7.37817 7.62183L10.1918 10.464Z" fill="white"/>
<path d="M9.09229 8.55514C8.8733 8.28377 8.68763 7.97909 8.58289 7.64584C8.44007 7.19833 8.42103 6.61752 8.93995 6.2081C9.68738 5.61777 10.4253 6.08432 10.8347 6.50326L10.2968 6.92697C10.1301 6.76986 9.94446 6.60324 9.70166 6.62228C9.59216 6.62228 9.49695 6.65561 9.40174 6.72702C9.36841 6.75082 9.33985 6.77939 9.30652 6.81747C9.21607 6.93173 9.19702 7.06503 9.19702 7.19357C9.19702 7.38876 9.29224 7.61251 9.42554 7.82198C9.55408 8.03146 9.71594 8.22188 9.83972 8.36471C10.1206 8.69796 10.6062 9.24068 11.0632 8.8741C11.4298 8.5837 11.287 8.22188 11.1061 7.95052L11.644 7.52682C11.9725 8.01717 12.2058 8.8265 11.4822 9.40254C11.2584 9.57869 11.0204 9.66438 10.7728 9.66438C10.1301 9.66914 9.57788 9.15499 9.23511 8.72652L9.09705 8.55037L9.09229 8.55514Z" fill="white"/>
<path d="M11.4304 6.73154C11.2591 6.42686 11.1162 6.10313 11.0639 5.75559C10.9925 5.28904 11.0639 4.713 11.6352 4.38451C12.4635 3.91319 13.1253 4.48448 13.4633 4.96531L12.8682 5.30333C12.7254 5.12242 12.573 4.92723 12.3255 4.91295C12.216 4.8939 12.116 4.91295 12.016 4.97484C11.9779 4.99388 11.9446 5.01768 11.9113 5.05101C11.8065 5.15098 11.7685 5.27952 11.7447 5.40806C11.7113 5.59849 11.7732 5.83653 11.878 6.06504C11.9779 6.29356 12.1065 6.50779 12.2064 6.66489C12.435 7.03623 12.8301 7.6456 13.3347 7.3552C13.7394 7.12192 13.6537 6.74583 13.5204 6.4459L14.1155 6.10789C14.3678 6.64109 14.4725 7.47898 13.668 7.94077C13.4204 8.08359 13.1729 8.12644 12.9253 8.09311C12.2921 8.00266 11.8208 7.40757 11.5495 6.93149L11.44 6.7363L11.4304 6.73154Z" fill="white"/>
<path d="M15.6637 6.92674L15.0353 7.19334L13.4785 3.5133L14.1069 3.2467L15.6637 6.92674Z" fill="white"/>
<path d="M16.1532 2.49944C17.2339 2.19475 17.8004 3.27068 18.048 4.14665C18.3098 5.07023 18.248 6.15568 17.2672 6.4318C16.2056 6.73172 15.6248 5.70817 15.363 4.76078C15.1202 3.88957 15.1773 2.7708 16.158 2.49468L16.1532 2.49944ZM17.0816 5.78434C17.7243 5.60343 17.472 4.65129 17.3482 4.22282C17.2244 3.78484 16.9245 2.98503 16.3341 3.15166C15.7057 3.32781 15.939 4.26091 16.0723 4.72746C16.1913 5.15592 16.496 5.95097 17.0816 5.78434Z" fill="white"/>
<path d="M18.7004 5.99864L18.291 2.01868L18.967 1.94726L20.5 4.36095L20.2382 1.81396L20.9189 1.74255L21.3284 5.72252L20.6571 5.79393L19.1241 3.38024L19.386 5.92247L18.7052 5.99388L18.7004 5.99864Z" fill="white"/>
<path d="M22.8047 5.76524L23.3284 1.80432L24.3186 1.93286C25.0803 2.03284 25.4183 2.66125 25.5088 3.18969C25.5707 3.53246 25.5469 3.84191 25.4993 4.18944C25.4612 4.44652 25.3993 4.7036 25.2898 4.94164C25.0708 5.45104 24.5709 5.99376 23.7854 5.88902L22.8047 5.76048V5.76524ZM23.5712 5.19872L23.8759 5.2368C24.5328 5.3225 24.7423 4.61315 24.8137 4.10375L24.8375 3.9276C24.9042 3.41821 24.8899 2.68029 24.2329 2.5946L23.9235 2.55652L23.5759 5.20348L23.5712 5.19872Z" fill="white"/>
<path d="M26.5215 2.29932L28.6162 2.88012L28.4401 3.51806L27.0118 3.12292L26.7548 4.04174L27.9687 4.37975L27.7974 4.99865L26.5834 4.66064L26.2977 5.69371L27.7259 6.08885L27.5498 6.72679L25.4551 6.14598L26.5262 2.29456L26.5215 2.29932Z" fill="white"/>
<path d="M29.2174 3.11353L29.8458 3.37537L28.5699 6.43175L29.8506 6.96495L29.5887 7.59337L27.6797 6.79357L29.2222 3.104L29.2174 3.11353Z" fill="white"/>
<path d="M34.691 6.03186L34.3292 6.58886L33.1438 5.81762L32.5773 6.68884L33.6341 7.37438L33.2723 7.92662L32.2154 7.24108L31.3252 8.61217L30.7539 8.24083L32.9296 4.88928L34.6863 6.03186H34.691Z" fill="white"/>
<path d="M35.1815 6.38879L35.7052 6.8363L34.0056 8.83581C33.7818 9.09765 33.5819 9.46898 33.939 9.77367C34.296 10.0784 34.634 9.81652 34.853 9.55944L36.5526 7.55993L37.0763 8.00744L35.3767 10.0069C34.8768 10.5973 34.1627 10.8401 33.5105 10.2831C32.8725 9.74034 32.9535 9.01195 33.4819 8.39306L35.1815 6.39355V6.38879Z" fill="white"/>
<path d="M39.2898 10.3784L38.7947 10.8259L38.1377 10.0975L35.6621 12.3303L35.2051 11.8209L37.6807 9.58813L37.0284 8.8645L37.5236 8.41699L39.2945 10.3784H39.2898Z" fill="white"/>
<path d="M39.6564 10.8497L40.0468 11.4163L37.8855 12.9064C37.6046 13.1016 37.3142 13.4062 37.5808 13.7966C37.8474 14.1822 38.2425 14.0156 38.5186 13.8252L40.68 12.3351L41.0704 12.9016L38.909 14.3917C38.2711 14.8297 37.5189 14.8821 37.0333 14.1727C36.5572 13.4824 36.8286 12.8016 37.4951 12.3398L39.6564 10.8497Z" fill="white"/>
<path d="M42.1273 14.6107C42.6795 15.3296 42.3606 15.9294 41.9035 16.2865C41.556 16.5531 41.1276 16.7292 40.661 16.5198L39.7374 18.0575L39.3042 17.491L40.104 16.1389L39.7945 15.739L38.6377 16.6245L38.2188 16.0818L41.3894 13.6538L42.1225 14.6107H42.1273ZM40.3278 15.3343L40.6658 15.7723C40.8895 16.0627 41.2037 15.9532 41.4275 15.7819C41.6512 15.6105 41.8464 15.3296 41.6036 15.0106L41.2847 14.5964L40.3278 15.3296V15.3343Z" fill="white"/>
<path d="M43.9948 16.9673C44.6803 17.8575 43.8853 18.7859 43.1664 19.3381C42.4047 19.9237 41.3716 20.2664 40.7527 19.4571C40.0815 18.5811 40.8194 17.6623 41.6001 17.0672C42.319 16.5197 43.3807 16.1579 43.9995 16.9673H43.9948ZM41.2859 19.0477C41.6906 19.5809 42.4809 18.9906 42.8379 18.7192C43.1997 18.4431 43.8329 17.867 43.4568 17.3814C43.0569 16.8625 42.2809 17.4243 41.8905 17.7194C41.5383 17.9908 40.9146 18.5669 41.2812 19.0477H41.2859Z" fill="white"/>
<path d="M44.6884 22.2373L43.9219 21.2375L44.4313 20.8472L45.1977 21.8469L44.6884 22.2373Z" fill="white"/>
<path d="M48.0456 22.3278L49.3644 24.0511L48.8359 24.4558L47.9361 23.2799L47.1792 23.8607L47.9457 24.8605L47.4363 25.2508L46.6698 24.2511L45.8224 24.9033L46.7269 26.0792L46.1985 26.4839L44.875 24.7557L48.0456 22.3278Z" fill="white"/>
<path d="M47.7972 26.5077C47.5402 26.7267 47.3783 27.0314 47.6592 27.3932C47.8449 27.636 48.0829 27.6789 48.3066 27.5027C48.6256 27.2599 48.5209 26.9552 48.4352 26.622C48.2352 25.9126 48.2733 25.3937 48.7637 25.0129C49.3064 24.5939 49.9634 24.751 50.3728 25.2842C50.806 25.846 50.6584 26.5268 50.13 26.9552L49.7158 26.4125C49.9491 26.2126 50.0729 25.965 49.8491 25.6746C49.6587 25.427 49.3968 25.389 49.1731 25.5603C48.9303 25.746 49.0017 26.084 49.1017 26.4125C49.3207 27.1647 49.2302 27.6503 48.7256 28.0407C48.1686 28.4691 47.564 28.3454 47.1355 27.7884C46.669 27.1742 46.7975 26.4268 47.3735 25.9602L47.7925 26.503L47.7972 26.5077Z" fill="white"/>
<path d="M52.8535 28.593L52.3251 28.9977L51.7252 28.2169L49.083 30.245L48.6641 29.7023L51.3063 27.6742L50.7159 26.903L51.2444 26.4983L52.8487 28.593H52.8535Z" fill="white"/>
<path d="M53.8776 29.8498C54.5631 30.7401 53.7681 31.6684 53.0492 32.2207C52.2875 32.8062 51.2544 33.149 50.6355 32.3397C49.9643 31.4637 50.7022 30.5449 51.483 29.9498C52.2018 29.4023 53.2635 29.0405 53.8824 29.8498H53.8776ZM51.1687 31.9303C51.5734 32.4635 52.3637 31.8731 52.7207 31.6018C53.0826 31.3256 53.7157 30.7496 53.3396 30.264C52.9397 29.7451 52.1637 30.3069 51.7734 30.602C51.4211 30.8734 50.7974 31.4494 51.164 31.9303H51.1687Z" fill="white"/>
<path d="M54.7668 31.0828L55.2191 31.6731L54.2289 33.2441L56.0046 32.7014L56.4569 33.287L53.8004 34.0106L52.6483 34.8961L52.2246 34.3439L53.3767 33.4631L54.7621 31.0875L54.7668 31.0828Z" fill="white"/>
<path d="M57.5183 34.677L58.837 36.4004L58.3086 36.805L57.4088 35.6291L56.6518 36.21L57.4183 37.2097L56.9089 37.6001L56.1424 36.6003L55.295 37.2526L56.1996 38.4285L55.6711 38.8331L54.3477 37.105L57.5183 34.677Z" fill="white"/>
<path d="M55.957 39.1998L59.1277 36.7671L59.5419 37.3051L58.2898 39.8711L60.3179 38.3143L60.732 38.857L57.5614 41.2898L57.152 40.7566L58.404 38.1905L56.376 39.7425L55.957 39.1998Z" fill="white"/>
<path d="M61.4421 41.6848C61.6183 41.3802 61.8277 41.0993 62.0991 40.8755C62.4657 40.5756 62.9941 40.3471 63.5702 40.6756C64.3938 41.1516 64.2367 42.0086 63.9939 42.5465L63.3988 42.2038C63.4845 41.9895 63.5749 41.7563 63.4607 41.5373C63.4226 41.4373 63.3559 41.3564 63.2512 41.2992C63.2179 41.2802 63.1798 41.2611 63.1322 41.2469C62.9941 41.204 62.8608 41.2373 62.7418 41.2802C62.5609 41.3468 62.3847 41.523 62.2419 41.7277C62.0943 41.9276 61.9753 42.1466 61.8896 42.3133C61.6849 42.6989 61.3612 43.3463 61.8658 43.6367C62.2705 43.87 62.5561 43.6034 62.7418 43.3368L63.3369 43.6796C63.0036 44.1652 62.3371 44.6793 61.5326 44.2175C61.285 44.0747 61.1184 43.8843 61.0232 43.651C60.7804 43.0559 61.0565 42.3513 61.3279 41.8753L61.4421 41.6801V41.6848Z" fill="white"/>
<path d="M63.2548 45.1316L65.9493 41.9467L66.5206 42.1942L66.035 46.3408L65.3638 46.0504L65.4828 45.2268L64.4402 44.7745L63.9213 45.4267L63.25 45.1363L63.2548 45.1316ZM65.5875 44.546L65.797 43.0892L64.8686 44.2366L65.5875 44.5508V44.546Z" fill="white"/>
<path d="M67.9791 42.7655L68.6313 42.9607L67.6744 46.1361L69.0027 46.536L68.8075 47.1882L66.8223 46.5931L67.9744 42.7607L67.9791 42.7655Z" fill="white"/>
<path d="M71.2784 43.632L71.7831 46.5455L73.0113 43.851L73.8683 43.9604L73.3589 47.9261L72.6781 47.8404L73.0113 45.322L71.8735 47.7357L71.3879 47.6738L70.9166 44.9174L70.5881 47.5738L69.9121 47.4881L70.4215 43.5225L71.2784 43.632Z" fill="white"/>
<path d="M74.6141 47.9358L75.4568 43.8511L76.0804 43.7987L77.6324 47.6739L76.904 47.7358L76.6184 46.9551L75.4853 47.055L75.3378 47.8739L74.6094 47.9358H74.6141ZM76.3851 46.3076L75.871 44.927L75.6044 46.3743L76.3851 46.3028V46.3076Z" fill="white"/>
<path d="M78.7051 43.3416L79.4001 43.0749L80.6284 44.4651L80.6046 42.6084L81.2949 42.3418L81.2425 45.0935L81.771 46.4455L81.1235 46.6979L80.5998 45.3458L78.7098 43.3511L78.7051 43.3416Z" fill="white"/>
<path d="M83.8739 43.0228C83.6644 42.7419 83.4883 42.4324 83.3978 42.0944C83.2693 41.6421 83.274 41.0613 83.8025 40.6662C84.569 40.0997 85.2926 40.59 85.6877 41.028L85.1355 41.4374C84.9736 41.2756 84.7975 41.0994 84.5499 41.1137C84.4404 41.1137 84.3452 41.1423 84.25 41.2089C84.2167 41.2327 84.1833 41.2613 84.1548 41.2946C84.0596 41.4041 84.0357 41.5374 84.031 41.6659C84.0215 41.8611 84.1119 42.0897 84.2405 42.3039C84.3642 42.5181 84.5166 42.7133 84.6356 42.8609C84.907 43.2037 85.3735 43.7607 85.8401 43.4131C86.2162 43.1323 86.0876 42.7704 85.9162 42.4896L86.4685 42.0801C86.7779 42.58 86.9874 43.3989 86.24 43.9511C86.0114 44.1225 85.7687 44.1939 85.5211 44.1891C84.8784 44.1749 84.3452 43.6417 84.0167 43.1989L83.8834 43.018L83.8739 43.0228Z" fill="white"/>
<path d="M86.1028 38.6189C86.874 37.8048 87.9119 38.438 88.5736 39.0616C89.2734 39.7186 89.7733 40.685 89.0735 41.4277C88.3165 42.2275 87.293 41.6467 86.5788 40.9707C85.9219 40.347 85.3982 39.3568 86.098 38.6189H86.1028ZM88.5879 40.9611C89.0449 40.4756 88.3451 39.79 88.0166 39.4806C87.6881 39.1664 87.0168 38.6332 86.5979 39.0807C86.1456 39.5567 86.8264 40.2328 87.1787 40.5708C87.5024 40.8755 88.1689 41.4039 88.5879 40.9611Z" fill="white"/>
<path d="M90.7685 39.4045L87.4551 37.167L87.8359 36.6052L90.6686 36.9813L88.55 35.5483L88.9309 34.9818L92.2444 37.2194L91.8683 37.7764L89.0356 37.405L91.1542 38.8332L90.7685 39.3998V39.4045Z" fill="white"/>
<path d="M91.6065 33.9202C91.2828 33.7869 90.9686 33.6203 90.7115 33.3775C90.3639 33.0585 90.064 32.5586 90.3116 31.9493C90.6686 31.0638 91.5446 31.1066 92.1064 31.2732L91.8493 31.9112C91.6255 31.8588 91.3827 31.8017 91.1828 31.9397C91.0876 31.9921 91.0209 32.0683 90.9781 32.1778C90.9638 32.2159 90.9495 32.2539 90.94 32.3016C90.9162 32.4444 90.9686 32.5729 91.0304 32.6824C91.1209 32.8538 91.3208 33.0014 91.5398 33.1156C91.7588 33.2347 91.9921 33.3203 92.1683 33.3822C92.5777 33.5346 93.268 33.7679 93.487 33.2251C93.6631 32.7919 93.3584 32.5443 93.068 32.3968L93.3251 31.7588C93.8536 32.0207 94.4582 32.6158 94.1106 33.4727C94.0011 33.7393 93.8393 33.925 93.6203 34.0535C93.0633 34.3772 92.3254 34.2011 91.816 33.9964L91.6065 33.9107V33.9202Z" fill="white"/>
<path d="M91.2673 29.0214C91.5434 27.9312 92.7622 27.9788 93.6429 28.2025C94.576 28.4358 95.4853 29.0357 95.2377 30.0211C94.9664 31.0875 93.7857 31.0828 92.8383 30.84C91.9624 30.6162 91.0197 30.0069 91.2721 29.0214H91.2673ZM94.5808 29.8593C94.7426 29.2118 93.7952 28.9547 93.362 28.8452C92.9193 28.7357 92.0766 28.5929 91.9243 29.188C91.7624 29.8212 92.686 30.083 93.1621 30.2068C93.5905 30.3163 94.4332 30.4496 94.5808 29.8593Z" fill="white"/>
<path d="M95.728 27.5266L91.748 27.1172L91.8195 26.4412L94.495 25.4366L91.948 25.1748L92.0194 24.494L95.9994 24.9034L95.928 25.5747L93.2524 26.5792L95.7947 26.8411L95.7233 27.5218L95.728 27.5266Z" fill="white"/>
<path d="M92.0487 24.1083L92.0201 23.3608L94.8718 22.5277L91.9583 21.9326L91.9297 21.1852L95.9715 22.1326L96.0001 22.8324L92.0535 24.1083H92.0487Z" fill="white"/>
<path d="M95.676 19.5048L95.776 20.1808L91.8246 20.7806L91.7246 20.1046L95.676 19.5048Z" fill="white"/>
<path d="M93.4723 18.9714C93.1342 19.0619 92.782 19.119 92.4344 19.0809C91.9631 19.0333 91.4252 18.8239 91.249 18.1859C90.9967 17.2671 91.7203 16.7672 92.2726 16.5578L92.4535 17.2195C92.244 17.3099 92.0155 17.4147 91.9393 17.648C91.8965 17.7479 91.8869 17.8527 91.9203 17.9622C91.9298 18.0003 91.9441 18.0431 91.9631 18.0859C92.0298 18.2145 92.1488 18.2859 92.2678 18.3383C92.4439 18.4192 92.6915 18.4144 92.9391 18.3763C93.1819 18.3383 93.4247 18.2668 93.6008 18.2097C94.0197 18.0812 94.7101 17.8479 94.5529 17.2861C94.4292 16.8339 94.0388 16.8244 93.7198 16.8815L93.5389 16.2197C94.1197 16.1102 94.9576 16.2197 95.2004 17.11C95.2766 17.3861 95.2575 17.6384 95.1623 17.867C94.9148 18.462 94.2245 18.7667 93.6913 18.9095L93.4723 18.9667V18.9714Z" fill="white"/>
<path d="M92.5146 15.7245C92.1956 15.8721 91.8624 15.9816 91.5101 16.0054C91.0388 16.0387 90.4722 15.9197 90.1914 15.3199C89.7915 14.4534 90.4199 13.844 90.9245 13.5441L91.2149 14.1678C91.0245 14.2915 90.815 14.4344 90.7817 14.6772C90.7531 14.7819 90.7674 14.8866 90.815 14.9914C90.834 15.0295 90.8531 15.0675 90.8817 15.1056C90.9721 15.2199 91.0959 15.2675 91.2244 15.3008C91.4101 15.3532 91.6577 15.3056 91.8909 15.2246C92.1242 15.1485 92.348 15.0342 92.5146 14.9485C92.905 14.7533 93.5477 14.4106 93.3001 13.8774C93.1049 13.4537 92.7193 13.506 92.4099 13.6155L92.1194 12.9919C92.6717 12.7872 93.5191 12.7491 93.9095 13.5917C94.0285 13.8536 94.0571 14.1011 93.9999 14.3439C93.8571 14.9676 93.2239 15.3865 92.7241 15.6198L92.5193 15.715L92.5146 15.7245Z" fill="white"/>
<path d="M92.4003 10.9592L92.7573 11.54L89.3629 13.6443L89.0059 13.0635L92.4003 10.964V10.9592Z" fill="white"/>
<path d="M87.7874 11.4543C87.0876 10.5736 87.8683 9.63572 88.5777 9.0692C89.3299 8.46935 90.3582 8.11229 90.9914 8.90733C91.6769 9.76902 90.9533 10.7069 90.182 11.3115C89.4679 11.8733 88.4158 12.2494 87.7826 11.4496L87.7874 11.4543ZM90.4629 9.33104C90.0488 8.80736 89.268 9.40721 88.9157 9.68333C88.5586 9.96421 87.935 10.5498 88.3158 11.0354C88.7205 11.5495 89.4917 10.9735 89.8774 10.6688C90.2249 10.3927 90.8438 9.80711 90.4629 9.33104Z" fill="white"/>
<path d="M89.2589 6.96008L86.5596 9.90696L86.0597 9.44994L86.85 6.703L85.1218 8.58824L84.6172 8.12645L87.3165 5.17957L87.8116 5.63659L87.0261 8.38353L88.7543 6.49829L89.2589 6.96008Z" fill="white"/>
<path d="M84.8364 3.40406L82.8845 6.89367L82.0132 6.40808C81.342 6.03674 81.261 5.32263 81.3705 4.79896C81.4372 4.45618 81.58 4.18006 81.7514 3.87061C81.8799 3.64686 82.0371 3.42787 82.2227 3.24696C82.6131 2.85658 83.2796 2.53285 83.9699 2.91847L84.8364 3.40406ZM83.9128 3.64686L83.6462 3.49928C83.0654 3.17555 82.6083 3.75636 82.356 4.20863L82.2703 4.36573C82.018 4.81324 81.7609 5.50354 82.3417 5.82727L82.6131 5.97961L83.9175 3.64686H83.9128Z" fill="white"/>
<path d="M80.1938 5.46531L78.1562 4.70836L78.3895 4.0847L79.7797 4.59886L80.1129 3.70385L78.9323 3.26586L79.156 2.66125L80.3367 3.09924L80.708 2.09472L79.3179 1.5758L79.5464 0.952148L81.584 1.7091L80.1938 5.45579V5.46531Z" fill="white"/>
<path d="M77.6798 4.58458L77.0133 4.44176L77.7084 1.20446L76.3516 0.91406L76.4944 0.247559L78.5177 0.680785L77.6798 4.58458Z" fill="white"/>
<path d="M71.7205 4.00377V3.34203L73.1249 3.33251L73.1153 2.29467L71.8538 2.30419V1.64245L73.1106 1.63293L73.0963 0H73.7771L73.8057 3.98949L71.7109 4.00377H71.7205Z" fill="white"/>
<path d="M71.282 4.04192L70.6012 4.15618L70.1585 1.56635C70.1013 1.22833 69.9442 0.833194 69.4777 0.914126C69.0111 0.995059 69.0016 1.41876 69.0587 1.75677L69.5015 4.34185L68.8207 4.4561L68.3779 1.87103C68.2494 1.10932 68.5208 0.404729 69.3682 0.261907C70.1918 0.119085 70.7012 0.652286 70.8392 1.45209L71.282 4.04192Z" fill="white"/>
<path d="M65.9066 5.45091L65.6829 4.8225L66.6112 4.49401L65.502 1.35193L66.1494 1.12341L67.2587 4.26549L68.1775 3.94176L68.4012 4.57018L65.9114 5.45091H65.9066Z" fill="white"/>
<path d="M65.5128 5.6415L64.9082 5.96999L63.6514 3.6658C63.4848 3.36588 63.2134 3.04215 62.7992 3.27066C62.385 3.49918 62.5136 3.90384 62.6754 4.20376L63.9323 6.50795L63.3277 6.83644L62.0708 4.53225C61.6995 3.85147 61.7281 3.09928 62.4802 2.68985C63.2134 2.28995 63.8656 2.62796 64.256 3.33731L65.5128 5.6415Z" fill="white"/>
<path d="M61.7938 7.93626C61.0654 8.48375 60.4703 8.15526 60.118 7.69347C59.8562 7.34117 59.6848 6.91271 59.8943 6.44616L58.3613 5.5083L58.9326 5.07983L60.2799 5.89391L60.6846 5.58923L59.8086 4.42285L60.3561 4.01343L62.7555 7.21263L61.789 7.93626H61.7938ZM61.0892 6.12719L60.6465 6.46044C60.3513 6.67943 60.4608 6.9984 60.6274 7.22216C60.7988 7.45067 61.0749 7.64586 61.3987 7.40782L61.8176 7.09362L61.094 6.12719H61.0892Z" fill="white"/>
<path d="M59.5425 9.93576C58.7427 10.7213 57.7286 10.05 57.0907 9.40256C56.4147 8.71702 55.9529 7.73631 56.6765 7.0222C57.462 6.25096 58.4665 6.86986 59.1473 7.56968C59.7805 8.21714 60.2661 9.22165 59.5377 9.93576H59.5425ZM57.1478 7.50303C56.6717 7.96958 57.3478 8.68369 57.662 9.00266C57.9809 9.32639 58.6284 9.8834 59.0664 9.45493C59.5329 8.9979 58.8807 8.29331 58.5379 7.94578C58.2285 7.63157 57.581 7.07933 57.1478 7.50303Z" fill="white"/>
<path d="M15.9668 2.10437L16.8618 1.01892L17.1951 1.47119L15.9668 2.10437Z" fill="white"/>
<path d="M87.526 11.5875L86.2168 11.0734L86.5453 10.6163L87.526 11.5875Z" fill="white"/>
<path d="M72.5918 12.6064C73.9533 12.6064 75.234 12.8588 76.4384 13.3682C77.6381 13.8728 78.695 14.5726 79.6043 15.4676C80.5136 16.3627 81.2277 17.4148 81.7466 18.6288C82.2656 19.8427 82.5274 21.1424 82.5274 22.5278V32.4825H79.5281V22.5516C79.5281 21.5947 79.3472 20.6902 78.9902 19.838C78.6284 18.9858 78.138 18.2479 77.5096 17.6242C76.8812 17.0006 76.1433 16.5055 75.2911 16.1484C74.4389 15.7914 73.5296 15.6105 72.5727 15.6105C71.6158 15.6105 70.7113 15.7914 69.8734 16.1484C69.0355 16.5055 68.3023 17.0006 67.6739 17.6242C67.0455 18.2479 66.5456 18.9858 66.1743 19.838C65.803 20.6902 65.6125 21.5947 65.6125 22.5468C65.6125 23.499 65.7982 24.4035 66.1743 25.2366C66.5456 26.0745 67.0455 26.8029 67.6739 27.4313C68.2976 28.055 69.0355 28.5549 69.8734 28.9262C70.7113 29.2975 71.611 29.4832 72.5727 29.4832V32.4825C71.2111 32.4825 69.9258 32.2206 68.7118 31.7017C67.4978 31.1828 66.4409 30.4687 65.5316 29.5641C64.6271 28.6596 63.913 27.598 63.394 26.384C62.8751 25.17 62.6133 23.8846 62.6133 22.5278C62.6133 21.171 62.8751 19.8904 63.394 18.6907C63.913 17.4909 64.6271 16.4388 65.5364 15.5295C66.4457 14.625 67.5073 13.9109 68.7213 13.392C69.9353 12.873 71.2254 12.6112 72.587 12.6112L72.5918 12.6064Z" fill="white"/>
<path d="M23.3842 34.1202C21.9989 34.1202 20.6992 33.8583 19.4852 33.3394C18.2712 32.8205 17.2143 32.1064 16.305 31.2018C15.4005 30.2973 14.6864 29.2357 14.1675 28.0217C13.6486 26.8077 13.3867 25.508 13.3867 24.1226C13.3867 22.7373 13.6486 21.4757 14.1675 20.2617C14.6864 19.0477 15.4005 17.9908 16.305 17.0815C17.2096 16.177 18.2712 15.4581 19.4852 14.9202C20.6992 14.387 21.9989 14.1204 23.3842 14.1204C24.7696 14.1204 26.0312 14.387 27.2452 14.9202C28.4592 15.4534 29.5161 16.1722 30.4254 17.0815C31.3299 17.9861 32.0488 19.0477 32.5867 20.2617C33.1199 21.4757 33.3865 22.7611 33.3865 24.1226V26.0412H23.389V23.042H30.3873C30.3873 22.2422 30.2064 21.4804 29.8493 20.7616C29.4875 20.0427 28.9876 19.4143 28.3497 18.8811C27.7117 18.3479 26.9643 17.9194 26.1121 17.6005C25.26 17.2815 24.3507 17.1196 23.3938 17.1196C22.4369 17.1196 21.4895 17.3005 20.6325 17.6576C19.7804 18.0194 19.0377 18.5193 18.414 19.1572C17.7856 19.7951 17.2953 20.5426 16.9335 21.3947C16.5716 22.2469 16.3955 23.1562 16.3955 24.1131C16.3955 25.07 16.5764 26.0174 16.9335 26.8743C17.2953 27.7265 17.7856 28.4692 18.414 29.0928C19.0425 29.7213 19.7804 30.2116 20.6325 30.5734C21.4847 30.9352 22.4035 31.1114 23.3938 31.1114V34.1106L23.3842 34.1202Z" fill="white"/>
<path d="M5.63281 56.8749V68.2499H3.49219V56.8749H5.63281ZM9.16406 56.8749V58.5702H0V56.8749H9.16406Z" fill="white"/>
<path d="M11.9531 61.5233V68.2499H9.89062V59.7968H11.8438L11.9531 61.5233ZM14.5234 59.7421L14.4922 61.6639C14.3776 61.6431 14.2474 61.6275 14.1016 61.6171C13.9609 61.6066 13.8281 61.6014 13.7031 61.6014C13.3854 61.6014 13.1068 61.6457 12.8672 61.7343C12.6276 61.8176 12.4271 61.94 12.2656 62.1014C12.1094 62.2629 11.9896 62.4608 11.9062 62.6952C11.8229 62.9244 11.776 63.1848 11.7656 63.4764L11.3203 63.4218C11.3203 62.8853 11.375 62.3879 11.4844 61.9296C11.5938 61.4712 11.7526 61.0702 11.9609 60.7264C12.1693 60.3827 12.4297 60.1171 12.7422 59.9296C13.0599 59.7369 13.4245 59.6405 13.8359 59.6405C13.9505 59.6405 14.0729 59.6509 14.2031 59.6718C14.3385 59.6874 14.4453 59.7108 14.5234 59.7421Z" fill="white"/>
<path d="M20.6875 66.2421V59.7968H22.7656V68.2499H20.8125L20.6875 66.2421ZM20.9531 64.4921L21.5938 64.4764C21.5938 65.0441 21.5312 65.5676 21.4062 66.0468C21.2812 66.5259 21.0859 66.9426 20.8203 67.2968C20.5599 67.6457 20.2292 67.9191 19.8281 68.1171C19.4271 68.3098 18.9531 68.4061 18.4062 68.4061C17.9896 68.4061 17.6094 68.3488 17.2656 68.2343C16.9219 68.1145 16.625 67.9296 16.375 67.6796C16.1302 67.4244 15.9401 67.0988 15.8047 66.703C15.6693 66.302 15.6016 65.8202 15.6016 65.2577V59.7968H17.6641V65.2733C17.6641 65.5546 17.6953 65.7889 17.7578 65.9764C17.8255 66.1639 17.9167 66.3176 18.0312 66.4374C18.151 66.552 18.2891 66.6353 18.4453 66.6874C18.6068 66.7343 18.7786 66.7577 18.9609 66.7577C19.4609 66.7577 19.8542 66.6587 20.1406 66.4608C20.4323 66.2577 20.6406 65.9869 20.7656 65.6483C20.8906 65.3046 20.9531 64.9191 20.9531 64.4921Z" fill="white"/>
<path d="M24.5859 56.2499H26.6562V66.3827L26.4531 68.2499H24.5859V56.2499ZM32.0938 63.9374V64.1014C32.0938 64.7316 32.0234 65.3098 31.8828 65.8358C31.7474 66.3619 31.5417 66.8176 31.2656 67.203C30.9896 67.5832 30.6458 67.8801 30.2344 68.0936C29.8281 68.302 29.3516 68.4061 28.8047 68.4061C28.2839 68.4061 27.8307 68.3046 27.4453 68.1014C27.0651 67.8983 26.7448 67.6119 26.4844 67.2421C26.224 66.8671 26.0156 66.427 25.8594 65.9218C25.7031 65.4113 25.5859 64.854 25.5078 64.2499V63.8046C25.5859 63.1952 25.7031 62.6379 25.8594 62.1327C26.0156 61.6275 26.224 61.1874 26.4844 60.8124C26.7448 60.4374 27.0651 60.1483 27.4453 59.9452C27.8255 59.7421 28.2734 59.6405 28.7891 59.6405C29.3411 59.6405 29.8229 59.7473 30.2344 59.9608C30.651 60.1691 30.9948 60.466 31.2656 60.8514C31.5417 61.2316 31.7474 61.6848 31.8828 62.2108C32.0234 62.7316 32.0938 63.3072 32.0938 63.9374ZM30.0234 64.1014V63.9374C30.0234 63.578 29.9948 63.2395 29.9375 62.9218C29.8802 62.5988 29.7865 62.315 29.6562 62.0702C29.526 61.8254 29.349 61.6327 29.125 61.4921C28.901 61.3514 28.6198 61.2811 28.2812 61.2811C27.9583 61.2811 27.6823 61.3358 27.4531 61.4452C27.2292 61.5546 27.0417 61.7056 26.8906 61.8983C26.7448 62.091 26.6302 62.3176 26.5469 62.578C26.4688 62.8384 26.4167 63.1197 26.3906 63.4218V64.6405C26.4271 65.0415 26.513 65.4035 26.6484 65.7264C26.7839 66.0441 26.9844 66.2968 27.25 66.4843C27.5208 66.6718 27.8698 66.7655 28.2969 66.7655C28.6302 66.7655 28.9089 66.7004 29.1328 66.5702C29.3568 66.4348 29.5339 66.2473 29.6641 66.0077C29.7943 65.7629 29.8854 65.479 29.9375 65.1561C29.9948 64.8332 30.0234 64.4816 30.0234 64.1014Z" fill="white"/>
<path d="M38.625 66.2421V59.7968H40.7031V68.2499H38.75L38.625 66.2421ZM38.8906 64.4921L39.5312 64.4764C39.5312 65.0441 39.4688 65.5676 39.3438 66.0468C39.2188 66.5259 39.0234 66.9426 38.7578 67.2968C38.4974 67.6457 38.1667 67.9191 37.7656 68.1171C37.3646 68.3098 36.8906 68.4061 36.3438 68.4061C35.9271 68.4061 35.5469 68.3488 35.2031 68.2343C34.8594 68.1145 34.5625 67.9296 34.3125 67.6796C34.0677 67.4244 33.8776 67.0988 33.7422 66.703C33.6068 66.302 33.5391 65.8202 33.5391 65.2577V59.7968H35.6016V65.2733C35.6016 65.5546 35.6328 65.7889 35.6953 65.9764C35.763 66.1639 35.8542 66.3176 35.9688 66.4374C36.0885 66.552 36.2266 66.6353 36.3828 66.6874C36.5443 66.7343 36.7161 66.7577 36.8984 66.7577C37.3984 66.7577 37.7917 66.6587 38.0781 66.4608C38.3698 66.2577 38.5781 65.9869 38.7031 65.6483C38.8281 65.3046 38.8906 64.9191 38.8906 64.4921Z" fill="white"/>
<path d="M47.5703 56.8749V68.2499H45.4297V56.8749H47.5703ZM51.1016 56.8749V58.5702H41.9375V56.8749H51.1016Z" fill="white"/>
<path d="M53.8906 61.5233V68.2499H51.8281V59.7968H53.7812L53.8906 61.5233ZM56.4609 59.7421L56.4297 61.6639C56.3151 61.6431 56.1849 61.6275 56.0391 61.6171C55.8984 61.6066 55.7656 61.6014 55.6406 61.6014C55.3229 61.6014 55.0443 61.6457 54.8047 61.7343C54.5651 61.8176 54.3646 61.94 54.2031 62.1014C54.0469 62.2629 53.9271 62.4608 53.8438 62.6952C53.7604 62.9244 53.7135 63.1848 53.7031 63.4764L53.2578 63.4218C53.2578 62.8853 53.3125 62.3879 53.4219 61.9296C53.5312 61.4712 53.6901 61.0702 53.8984 60.7264C54.1068 60.3827 54.3672 60.1171 54.6797 59.9296C54.9974 59.7369 55.362 59.6405 55.7734 59.6405C55.888 59.6405 56.0104 59.6509 56.1406 59.6718C56.276 59.6874 56.3828 59.7108 56.4609 59.7421Z" fill="white"/>
<path d="M61.9844 66.453V62.5546C61.9844 62.2681 61.9349 62.0207 61.8359 61.8124C61.737 61.604 61.5859 61.4426 61.3828 61.328C61.1797 61.2134 60.9219 61.1561 60.6094 61.1561C60.3333 61.1561 60.0911 61.203 59.8828 61.2968C59.6797 61.3905 59.5234 61.5233 59.4141 61.6952C59.3047 61.8619 59.25 62.0546 59.25 62.2733H57.1797C57.1797 61.9244 57.263 61.5936 57.4297 61.2811C57.5964 60.9634 57.8333 60.6822 58.1406 60.4374C58.4531 60.1874 58.8255 59.9921 59.2578 59.8514C59.6953 59.7108 60.1849 59.6405 60.7266 59.6405C61.3672 59.6405 61.9375 59.7499 62.4375 59.9686C62.9427 60.1822 63.3385 60.5051 63.625 60.9374C63.9167 61.3697 64.0625 61.9139 64.0625 62.5702V66.2577C64.0625 66.6796 64.0885 67.0415 64.1406 67.3436C64.1979 67.6405 64.2812 67.8983 64.3906 68.1171V68.2499H62.2891C62.1901 68.0363 62.1146 67.7655 62.0625 67.4374C62.0104 67.104 61.9844 66.7759 61.9844 66.453ZM62.2734 63.1014L62.2891 64.328H60.9844C60.6615 64.328 60.3776 64.3619 60.1328 64.4296C59.888 64.4921 59.6875 64.5858 59.5312 64.7108C59.375 64.8306 59.2578 64.9764 59.1797 65.1483C59.1016 65.315 59.0625 65.5051 59.0625 65.7186C59.0625 65.927 59.1094 66.1145 59.2031 66.2811C59.3021 66.4478 59.4427 66.5806 59.625 66.6796C59.8125 66.7733 60.0312 66.8202 60.2812 66.8202C60.6458 66.8202 60.9635 66.7473 61.2344 66.6014C61.5052 66.4504 61.7161 66.2681 61.8672 66.0546C62.0182 65.841 62.099 65.6379 62.1094 65.4452L62.7031 66.3358C62.6302 66.5494 62.5208 66.7759 62.375 67.0155C62.2292 67.2551 62.0417 67.479 61.8125 67.6874C61.5833 67.8957 61.3073 68.0676 60.9844 68.203C60.6615 68.3384 60.2865 68.4061 59.8594 68.4061C59.3125 68.4061 58.8229 68.2968 58.3906 68.078C57.9583 67.8593 57.6172 67.5598 57.3672 67.1796C57.1172 66.7994 56.9922 66.3671 56.9922 65.8827C56.9922 65.4348 57.0755 65.0389 57.2422 64.6952C57.4089 64.3514 57.6562 64.0624 57.9844 63.828C58.3125 63.5884 58.7188 63.4087 59.2031 63.2889C59.6927 63.1639 60.2526 63.1014 60.8828 63.1014H62.2734Z" fill="white"/>
<path d="M70.9922 66.453V56.2499H73.0703V68.2499H71.1953L70.9922 66.453ZM65.5625 64.1249V63.9608C65.5625 63.315 65.6354 62.729 65.7812 62.203C65.9323 61.6718 66.151 61.216 66.4375 60.8358C66.724 60.4556 67.0703 60.1613 67.4766 59.953C67.888 59.7447 68.3542 59.6405 68.875 59.6405C69.3802 59.6405 69.8203 59.7421 70.1953 59.9452C70.5755 60.1483 70.8984 60.4374 71.1641 60.8124C71.4349 61.1874 71.651 61.6327 71.8125 62.1483C71.974 62.6587 72.0911 63.2212 72.1641 63.8358V64.2811C72.0911 64.8801 71.974 65.4296 71.8125 65.9296C71.651 66.4296 71.4349 66.8671 71.1641 67.2421C70.8984 67.6119 70.5755 67.8983 70.1953 68.1014C69.8151 68.3046 69.3698 68.4061 68.8594 68.4061C68.3438 68.4061 67.8802 68.2994 67.4688 68.0858C67.0625 67.8723 66.7161 67.5728 66.4297 67.1874C66.1484 66.802 65.9323 66.3488 65.7812 65.828C65.6354 65.3072 65.5625 64.7395 65.5625 64.1249ZM67.6328 63.9608V64.1249C67.6328 64.4895 67.6641 64.8306 67.7266 65.1483C67.7891 65.466 67.8906 65.7473 68.0312 65.9921C68.1719 66.2316 68.3516 66.4191 68.5703 66.5546C68.7943 66.69 69.0651 66.7577 69.3828 66.7577C69.7891 66.7577 70.1224 66.6691 70.3828 66.4921C70.6484 66.3098 70.8542 66.0624 71 65.7499C71.1458 65.4322 71.2396 65.0754 71.2812 64.6796V63.453C71.2604 63.1405 71.2057 62.8514 71.1172 62.5858C71.0339 62.3202 70.9141 62.091 70.7578 61.8983C70.6068 61.7056 70.4193 61.5546 70.1953 61.4452C69.9714 61.3358 69.7057 61.2811 69.3984 61.2811C69.0807 61.2811 68.8099 61.3514 68.5859 61.4921C68.362 61.6275 68.1797 61.8176 68.0391 62.0624C67.8984 62.3072 67.7943 62.591 67.7266 62.9139C67.6641 63.2369 67.6328 63.5858 67.6328 63.9608Z" fill="white"/>
<path d="M77.125 59.7968V68.2499H75.0547V59.7968H77.125ZM74.9141 57.5858C74.9141 57.2785 75.0182 57.0233 75.2266 56.8202C75.4401 56.6171 75.7266 56.5155 76.0859 56.5155C76.4453 56.5155 76.7292 56.6171 76.9375 56.8202C77.151 57.0233 77.2578 57.2785 77.2578 57.5858C77.2578 57.8879 77.151 58.1405 76.9375 58.3436C76.7292 58.5468 76.4453 58.6483 76.0859 58.6483C75.7266 58.6483 75.4401 58.5468 75.2266 58.3436C75.0182 58.1405 74.9141 57.8879 74.9141 57.5858Z" fill="white"/>
<path d="M81.1172 61.6014V68.2499H79.0547V59.7968H80.9922L81.1172 61.6014ZM80.7891 63.7186H80.1797C80.1849 63.104 80.2682 62.5468 80.4297 62.0468C80.5911 61.5468 80.8177 61.1171 81.1094 60.7577C81.4062 60.3983 81.7578 60.1223 82.1641 59.9296C82.5703 59.7369 83.0234 59.6405 83.5234 59.6405C83.9297 59.6405 84.2969 59.6978 84.625 59.8124C84.9531 59.927 85.2344 60.1093 85.4688 60.3593C85.7083 60.6093 85.8906 60.9374 86.0156 61.3436C86.1458 61.7447 86.2109 62.2395 86.2109 62.828V68.2499H84.1328V62.8124C84.1328 62.427 84.0755 62.1223 83.9609 61.8983C83.8516 61.6744 83.6901 61.5155 83.4766 61.4218C83.2682 61.328 83.0104 61.2811 82.7031 61.2811C82.3854 61.2811 82.1068 61.3462 81.8672 61.4764C81.6328 61.6014 81.4349 61.7759 81.2734 61.9999C81.1172 62.2238 80.9974 62.4816 80.9141 62.7733C80.8307 63.065 80.7891 63.3801 80.7891 63.7186Z" fill="white"/>
<path d="M93.4062 59.7968H95.2812V67.9921C95.2812 68.7577 95.1146 69.4061 94.7812 69.9374C94.4531 70.4738 93.9922 70.8801 93.3984 71.1561C92.8047 71.4374 92.1146 71.578 91.3281 71.578C90.9896 71.578 90.6224 71.5311 90.2266 71.4374C89.8359 71.3436 89.4583 71.1952 89.0938 70.9921C88.7344 70.7941 88.4349 70.5363 88.1953 70.2186L89.125 68.9999C89.4062 69.328 89.724 69.5754 90.0781 69.7421C90.4323 69.9139 90.8151 69.9999 91.2266 69.9999C91.6432 69.9999 91.9974 69.9218 92.2891 69.7655C92.5859 69.6145 92.8125 69.3905 92.9688 69.0936C93.1302 68.802 93.2109 68.4426 93.2109 68.0155V61.7264L93.4062 59.7968ZM87.6953 64.1249V63.9608C87.6953 63.315 87.7734 62.729 87.9297 62.203C88.0859 61.6718 88.3099 61.216 88.6016 60.8358C88.8984 60.4556 89.2552 60.1613 89.6719 59.953C90.0938 59.7447 90.5677 59.6405 91.0938 59.6405C91.651 59.6405 92.1198 59.7421 92.5 59.9452C92.8854 60.1483 93.2031 60.4374 93.4531 60.8124C93.7083 61.1874 93.9062 61.6327 94.0469 62.1483C94.1927 62.6587 94.3047 63.2212 94.3828 63.8358V64.2811C94.3099 64.8801 94.1927 65.4296 94.0312 65.9296C93.875 66.4296 93.6667 66.8671 93.4062 67.2421C93.1458 67.6119 92.8229 67.8983 92.4375 68.1014C92.0521 68.3046 91.599 68.4061 91.0781 68.4061C90.5573 68.4061 90.0885 68.2994 89.6719 68.0858C89.2552 67.8723 88.8984 67.5728 88.6016 67.1874C88.3099 66.802 88.0859 66.3488 87.9297 65.828C87.7734 65.3072 87.6953 64.7395 87.6953 64.1249ZM89.7578 63.9608V64.1249C89.7578 64.4895 89.7943 64.8306 89.8672 65.1483C89.9401 65.466 90.0521 65.7473 90.2031 65.9921C90.3542 66.2316 90.5443 66.4191 90.7734 66.5546C91.0026 66.69 91.276 66.7577 91.5938 66.7577C92.0208 66.7577 92.3698 66.6691 92.6406 66.4921C92.9167 66.3098 93.125 66.0624 93.2656 65.7499C93.4115 65.4322 93.5052 65.0754 93.5469 64.6796V63.453C93.5208 63.1405 93.4635 62.8514 93.375 62.5858C93.2917 62.3202 93.1745 62.091 93.0234 61.8983C92.8724 61.7056 92.6797 61.5546 92.4453 61.4452C92.2109 61.3358 91.9323 61.2811 91.6094 61.2811C91.2969 61.2811 91.0234 61.3514 90.7891 61.4921C90.5547 61.6275 90.362 61.8176 90.2109 62.0624C90.0599 62.3072 89.9453 62.591 89.8672 62.9139C89.7943 63.2369 89.7578 63.5858 89.7578 63.9608Z" fill="white"/>
</svg>
