<?xml version="1.0" encoding="UTF-8"?>
<svg id="Capa_2" data-name="Capa 2" xmlns="http://www.w3.org/2000/svg" viewBox="0 0 320.82 270.7">
  <defs>
    <style>
      .cls-1 {
        fill: #1d1d1b;
      }
    </style>
  </defs>
  <g id="Capa_1-2" data-name="Capa 1">
    <g>
      <polygon class="cls-1" points="148.64 119.13 138.22 137.18 148.64 155.22 169.48 155.22 179.9 137.18 169.48 119.13 148.64 119.13"/>
      <path class="cls-1" d="M274.81,31.17c-2.52-2.16-5.13-4.21-7.82-6.16-15.32-11.18-33.16-19.09-52.5-22.72-7.9-1.51-16.05-2.28-24.39-2.28h-16.58v22.83h0s.2,0,.2,0v.94h-29.31V0h-13.68c-8.33,0-16.5.78-24.41,2.28-19.07,3.59-36.67,11.32-51.84,22.24-3.42,2.46-6.73,5.1-9.9,7.89C17.25,56.35,0,91.52,0,130.72v9.24c0,39.62,17.62,75.12,45.46,99.1,3.23,2.78,6.59,5.4,10.08,7.86,0,0,0,0,.02,0,14.93,10.51,32.14,17.99,50.78,21.49,7.91,1.51,16.07,2.29,24.41,2.29h13.87v-22.78h29.12v22.79h16.37c8.34,0,16.49-.78,24.39-2.29,18.88-3.54,36.33-11.17,51.41-21.91,2.76-1.97,5.42-4.04,8.02-6.22,28.67-23.96,46.91-60.01,46.91-100.31v-9.24c0-39.89-17.87-75.59-46.02-99.56ZM173.72,23.78h12.93c8.83,0,17.41,1.07,25.62,3.1,6.53,1.6,12.83,3.79,18.84,6.53,0,0,0,0,0,0l-57.39,57.39V23.78ZM110.38,26.68c7.98-1.89,16.3-2.9,24.86-2.9h9.17v67.02l-56.19-56.19c6.99-3.42,14.41-6.09,22.16-7.93ZM144.42,246.91h-9.19c-8.27,0-16.33-.94-24.06-2.7-7.37-1.69-14.44-4.14-21.14-7.27l54.39-54.39v64.36ZM211.51,244.02c-7.98,1.89-16.3,2.9-24.86,2.9h-12.92v-64.36l55.54,55.54c-5.68,2.46-11.61,4.46-17.76,5.92ZM293.93,139.63c0,33.03-14.93,62.58-38.41,82.25-.18.15-.37.3-.55.45l-53.22-53.22h-85.35l-51.52,51.52c-.18-.15-.36-.3-.54-.46-22.33-19.66-36.41-48.46-36.41-80.53v-8.57c0-31.66,13.71-60.12,35.53-79.77h0l52.93,52.93h85.35l54.67-54.67c22.98,19.67,37.52,48.89,37.52,81.5v8.57Z"/>
    </g>
  </g>
</svg>