<?xml version="1.0" encoding="UTF-8"?>
<svg id="Capa_2" data-name="Capa 2" xmlns="http://www.w3.org/2000/svg" xmlns:xlink="http://www.w3.org/1999/xlink" viewBox="0 0 541.5 154.5">
  <defs>
    <style>
      .cls-1 {
        fill: none;
      }

      .cls-2 {
        clip-path: url(#clippath);
      }
    </style>
    <clipPath id="clippath">
      <rect class="cls-1" width="541.5" height="154.5"/>
    </clipPath>
  </defs>
  <g id="Capa_1-2" data-name="Capa 1">
    <g class="cls-2">
      <path d="M81.14,84h11.35l5.68-9.83-5.68-9.83h-11.35l-5.68,9.83,5.68,9.83ZM48.84,128.89l30-30v35.6h15.97v-35.6l30.64,30.64c5.05-2.24,9.74-5.16,13.92-8.67l-29.29-29.29h-46.49l-28.36,28.36c4.07,3.59,8.65,6.62,13.62,8.97h0ZM63.57,56.77h46.49l29.78-29.78c-4.13-3.54-8.77-6.51-13.78-8.8l-31.26,31.26V12.95h-15.97v36.51l-30.61-30.61c-4.92,2.4-9.46,5.47-13.48,9.09l28.83,28.83h0ZM24.93,130.21c1.76,1.51,3.59,2.94,5.49,4.28,0,0,0,0,.01,0,8.13,5.73,17.51,9.8,27.66,11.7,4.31.82,8.75,1.25,13.3,1.25h7.56v-12.44h-.1v-.52h-5.01c-4.5,0-8.9-.51-13.11-1.47-4.15-.95-8.13-2.34-11.89-4.13-4.96-2.35-9.55-5.38-13.62-8.97-12.16-10.71-19.83-26.39-19.83-43.87v-4.67c0-17.25,7.47-32.74,19.35-43.45,4.03-3.62,8.56-6.69,13.48-9.09,3.81-1.87,7.85-3.32,12.07-4.32,4.34-1.03,8.88-1.58,13.54-1.58h5V0h-7.45c-4.54,0-8.99.42-13.3,1.25-10.39,1.95-19.98,6.17-28.24,12.12-1.87,1.34-3.66,2.78-5.39,4.3C9.57,30.7.17,49.85.17,71.21v5.03c0,21.58,9.6,40.92,24.76,53.98h0ZM94.69,12.44V0h9.03c4.54,0,8.98.42,13.28,1.25,10.54,1.98,20.26,6.29,28.6,12.38,1.47,1.06,2.88,2.18,4.26,3.36,15.33,13.06,25.06,32.5,25.06,54.23v5.03c0,21.95-9.94,41.59-25.55,54.64-1.41,1.19-2.87,2.32-4.37,3.39-8.21,5.85-17.72,10-28,11.94-4.3.82-8.74,1.25-13.28,1.25h-8.92v-12.96h7.04c4.66,0,9.19-.55,13.54-1.58,3.49-.83,6.85-1.97,10.06-3.39,5.05-2.24,9.74-5.16,13.92-8.67,12.79-10.71,20.92-26.81,20.92-44.8v-4.67c0-17.76-7.93-33.68-20.44-44.4-4.13-3.54-8.77-6.51-13.78-8.8-3.27-1.49-6.7-2.69-10.26-3.56-4.47-1.1-9.15-1.69-13.96-1.69h-7.04v-.51h-.11,0Z"/>
      <path d="M518.56,148.48c4.97,0,8.95-1.69,11.97-5.06s4.54-8.04,4.54-14-1.51-10.68-4.54-14c-3.02-3.33-7-5.01-11.97-5.01s-8.82,1.69-11.84,5.1c-3.02,3.42-4.54,8.04-4.54,13.87s1.51,10.46,4.54,13.92,7,5.19,11.89,5.19h-.04ZM510.65,151.81c-2.81-1.56-5.06-3.5-6.79-5.88h-1.04v7.52h-6.48v-67.9h6.48v27.44h.95c4.02-5.49,9.46-8.21,16.34-8.21,6.35,0,11.5,2.16,15.39,6.48,3.89,4.32,5.83,10.37,5.83,18.15s-1.94,13.83-5.83,18.2c-3.89,4.37-9.03,6.53-15.39,6.53-3.5,0-6.66-.78-9.46-2.33h0ZM456.28,154.19c-5.83,0-10.16-1.69-12.92-5.01-2.77-3.33-4.15-8.69-4.15-16.12v-27.53h6.44v25.24c0,6.92,1,11.54,3.02,13.87,1.94,2.42,5.01,3.63,9.21,3.63,2.77,0,5.14-.6,7.13-1.86,1.99-1.25,3.42-2.98,4.32-5.19,1.08-1.64,1.6-5.49,1.6-11.5v-24.25h6.35v47.97h-6.35v-6.01h-.82c-3.11,4.45-7.69,6.7-13.79,6.7l-.04.04h0ZM417.94,153.49c-6.27,0-9.38-3.63-9.38-10.89v-31.68h-7.87v-5.4h7.87v-19.92h6.48v19.92h10.85v5.4h-10.85v30.25c0,1.12.04,2.03.13,2.72s.3,1.38.6,2.07c.3.69.82,1.21,1.51,1.56.69.35,1.6.52,2.72.52h5.83v5.4h-7.95l.04.04h0ZM394.29,151.59v1.86h-6.4l-16.55-25.85h-.52l-11.32,11.58v14.26h-6.4v-67.9h6.4v44.91h.43l24.42-24.98h6.57v1.6l-15.26,15.56,18.63,28.96h0ZM323.93,144.55c2.07-1.81,3.42-3.85,4.02-6.05.6-2.21.91-4.8.91-7.74v-.08h-12.23c-5.92,0-9.81.86-11.67,2.55-1.69,1.6-2.55,3.72-2.55,6.35,0,2.77,1,4.93,2.94,6.53,1.94,1.6,4.58,2.38,7.91,2.38,4.37,0,7.95-1.34,10.76-3.98l-.09.04h0ZM333.44,113.52c1.12,2.46,1.69,5.88,1.64,10.2v29.82h-6.44v-7.52h-1c-1.34,2.07-2.77,3.67-4.28,4.8-3.15,2.29-6.83,3.42-11.06,3.37-4.97,0-8.9-1.34-11.84-4.02-2.94-2.68-4.41-6.31-4.41-10.94s1.56-8.25,4.62-10.59c2.98-2.38,8.43-3.54,16.34-3.54h11.67v-3.37c0-3.67-1.04-6.53-3.11-8.56-2.08-2.03-5.19-3.07-9.33-3.07-3.76,0-6.66.82-8.73,2.46-2.07,1.64-3.29,3.93-3.67,6.92h-6.44c.39-4.5,2.21-8.08,5.4-10.72,3.2-2.64,7.69-3.98,13.48-3.98,8.86-.04,14.61,2.85,17.25,8.64l-.08.08h0ZM210.9,85.55h13.4l20.01,61.42h.95l20.01-61.42h13.27v67.9h-7.09v-61.5h-1.04l-20.18,61.5h-10.89l-20.27-61.5h-.99v61.5h-7.17v-67.9h0ZM391.2,66.02c4.97,0,8.95-1.69,11.97-5.06,3.02-3.37,4.54-8.04,4.54-14s-1.51-10.68-4.54-14c-3.02-3.33-7-5.01-11.97-5.01s-8.82,1.69-11.84,5.1c-3.02,3.42-4.54,8.04-4.54,13.87s1.51,10.46,4.54,13.92,7,5.19,11.89,5.19h-.04ZM383.29,69.35c-2.81-1.56-5.06-3.5-6.79-5.88h-1.04v7.52h-6.48V3.09h6.48v27.44h.95c4.02-5.49,9.46-8.21,16.34-8.21,6.35,0,11.5,2.16,15.39,6.48,3.89,4.32,5.83,10.37,5.83,18.15s-1.94,13.83-5.83,18.2c-3.89,4.37-9.03,6.53-15.39,6.53-3.5,0-6.66-.78-9.46-2.33h0ZM328.92,71.73c-5.83,0-10.16-1.69-12.92-5.01-2.77-3.33-4.15-8.69-4.15-16.12v-27.53h6.44v25.24c0,6.92.99,11.54,3.02,13.87,1.94,2.42,5.01,3.63,9.21,3.63,2.77,0,5.14-.6,7.13-1.86,1.99-1.25,3.42-2.98,4.32-5.19,1.08-1.64,1.6-5.49,1.6-11.5v-24.25h6.35v47.97h-6.35v-6.01h-.82c-3.11,4.45-7.69,6.7-13.79,6.7l-.04.04h0ZM294.69,70.99c-6.18,0-9.29-3.63-9.29-10.89V3.09h6.27v55.58c0,2.25.35,3.98,1.04,5.14.69,1.17,2.08,1.77,4.15,1.77h4.06v5.4h-6.22ZM240.57,71.86c-9.73,0-17.33-3.2-22.82-9.6-5.49-6.4-8.21-14.74-8.21-25.07s2.77-18.76,8.25-25.15c5.49-6.4,13.1-9.6,22.82-9.6,8.25,0,15,2.29,20.18,6.87,5.19,4.58,8.38,10.81,9.64,18.67h-7.35c-1.08-5.83-3.54-10.46-7.44-13.83-3.89-3.37-8.9-5.06-15.04-5.06-7.56,0-13.44,2.55-17.63,7.69s-6.27,11.93-6.27,20.36,2.12,15.13,6.31,20.27,10.07,7.69,17.63,7.69c6.18,0,11.19-1.69,15.04-5.06,3.85-3.37,6.31-7.95,7.39-13.79h7.35c-1.25,7.82-4.45,14.05-9.64,18.63-5.19,4.58-11.93,6.87-20.18,6.87l-.04.08h0Z"/>
    </g>
  </g>
</svg>