<svg width="56" height="56" viewBox="0 0 56 56" fill="none" xmlns="http://www.w3.org/2000/svg">
<path d="M0 10C0 4.47715 4.47715 0 10 0H46C51.5228 0 56 4.47715 56 10V46C56 51.5228 51.5228 56 46 56H10C4.47715 56 0 51.5228 0 46V10Z" fill="#00E6E6" fill-opacity="0.18"/>
<path fill-rule="evenodd" clip-rule="evenodd" d="M33.8856 23.3645C34.002 23.4807 34.0944 23.6186 34.1574 23.7705C34.2204 23.9224 34.2529 24.0852 34.2529 24.2496C34.2529 24.4141 34.2204 24.5769 34.1574 24.7288C34.0944 24.8806 34.002 25.0186 33.8856 25.1347L26.3848 32.6355C26.2687 32.7519 26.1308 32.8443 25.9789 32.9073C25.827 32.9703 25.6642 33.0027 25.4997 33.0027C25.3353 33.0027 25.1725 32.9703 25.0206 32.9073C24.8687 32.8443 24.7308 32.7519 24.6147 32.6355L20.8643 28.8851C20.7481 28.7689 20.6559 28.6309 20.5929 28.479C20.53 28.3271 20.4977 28.1644 20.4977 28C20.4977 27.8356 20.53 27.6729 20.5929 27.521C20.6559 27.3691 20.7481 27.2311 20.8643 27.1149C20.9805 26.9987 21.1185 26.9065 21.2704 26.8436C21.4222 26.7807 21.585 26.7483 21.7494 26.7483C21.9137 26.7483 22.0765 26.7807 22.2284 26.8436C22.3802 26.9065 22.5182 26.9987 22.6345 27.1149L25.4997 29.9827L32.1154 23.3645C32.2315 23.2481 32.3695 23.1557 32.5214 23.0927C32.6732 23.0297 32.8361 22.9973 33.0005 22.9973C33.1649 22.9973 33.3278 23.0297 33.4796 23.0927C33.6315 23.1557 33.7695 23.2481 33.8856 23.3645Z" fill="#CFF7D3"/>
<path d="M33.6831 14.2811L31.3803 11.9209L33.168 10.1757L34.7232 11.7684L36.9484 11.7409C37.9116 11.7295 38.8674 11.9108 39.7595 12.2741C40.6517 12.6375 41.4621 13.1756 42.1433 13.8567C42.8244 14.5379 43.3625 15.3483 43.7259 16.2405C44.0892 17.1326 44.2705 18.0884 44.2591 19.0516L44.2341 21.2768L45.8243 22.832C46.513 23.505 47.0603 24.3088 47.4339 25.1963C47.8075 26.0838 48 27.0371 48 28C48 28.9629 47.8075 29.9162 47.4339 30.8037C47.0603 31.6912 46.513 32.495 45.8243 33.168L44.2316 34.7232L44.2591 36.9484C44.2705 37.9116 44.0892 38.8674 43.7259 39.7595C43.3625 40.6517 42.8244 41.4621 42.1433 42.1433C41.4621 42.8244 40.6517 43.3625 39.7595 43.7259C38.8674 44.0892 37.9116 44.2705 36.9484 44.2591L34.7232 44.2341L33.168 45.8243C32.495 46.513 31.6912 47.0603 30.8037 47.4339C29.9162 47.8075 28.9629 48 28 48C27.0371 48 26.0838 47.8075 25.1963 47.4339C24.3088 47.0603 23.505 46.513 22.832 45.8243L21.2768 44.2316L19.0516 44.2591C18.0884 44.2705 17.1326 44.0892 16.2405 43.7259C15.3483 43.3625 14.5379 42.8244 13.8567 42.1433C13.1756 41.4621 12.6375 40.6517 12.2741 39.7595C11.9108 38.8674 11.7295 37.9116 11.7409 36.9484L11.7659 34.7232L10.1757 33.168C9.48699 32.495 8.93973 31.6912 8.5661 30.8037C8.19247 29.9162 8 28.9629 8 28C8 27.0371 8.19247 26.0838 8.5661 25.1963C8.93973 24.3088 9.48699 23.505 10.1757 22.832L11.7684 21.2768L11.7409 19.0516C11.7295 18.0884 11.9108 17.1326 12.2741 16.2405C12.6375 15.3483 13.1756 14.5379 13.8567 13.8567C14.5379 13.1756 15.3483 12.6375 16.2405 12.2741C17.1326 11.9108 18.0884 11.7295 19.0516 11.7409L21.2768 11.7659L22.832 10.1757C23.505 9.48699 24.3088 8.93973 25.1963 8.5661C26.0838 8.19247 27.0371 8 28 8C28.9629 8 29.9162 8.19247 30.8037 8.5661C31.6912 8.93973 32.495 9.48699 33.168 10.1757L31.3803 11.9209C30.9402 11.4703 30.4144 11.1123 29.8339 10.8678C29.2534 10.6234 28.6299 10.4974 28 10.4974C27.3701 10.4974 26.7466 10.6234 26.1661 10.8678C25.5856 11.1123 25.0598 11.4703 24.6197 11.9209L22.3194 14.2811L19.0191 14.2411C18.3895 14.2341 17.7648 14.3529 17.1818 14.5907C16.5987 14.8285 16.0691 15.1804 15.624 15.6258C15.1789 16.0711 14.8272 16.6009 14.5898 17.1841C14.3523 17.7672 14.2337 18.392 14.2411 19.0216L14.2811 22.3169L11.9209 24.6197C11.4703 25.0598 11.1123 25.5856 10.8678 26.1661C10.6234 26.7466 10.4974 27.3701 10.4974 28C10.4974 28.6299 10.6234 29.2534 10.8678 29.8339C11.1123 30.4144 11.4703 30.9402 11.9209 31.3803L14.2811 33.6806L14.2411 36.9809C14.2341 37.6105 14.3529 38.2352 14.5907 38.8182C14.8285 39.4013 15.1804 39.9309 15.6258 40.376C16.0711 40.8211 16.6009 41.1728 17.1841 41.4102C17.7672 41.6477 18.392 41.7663 19.0216 41.7589L22.3169 41.7189L24.6197 44.0791C25.0598 44.5297 25.5856 44.8877 26.1661 45.1322C26.7466 45.3766 27.3701 45.5026 28 45.5026C28.6299 45.5026 29.2534 45.3766 29.8339 45.1322C30.4144 44.8877 30.9402 44.5297 31.3803 44.0791L33.6806 41.7189L36.9809 41.7589C37.6105 41.7659 38.2352 41.6471 38.8182 41.4093C39.4013 41.1715 39.9309 40.8196 40.376 40.3742C40.8211 39.9289 41.1728 39.3991 41.4102 38.8159C41.6477 38.2328 41.7663 37.608 41.7589 36.9784L41.7189 33.6831L44.0791 31.3803C44.5297 30.9402 44.8877 30.4144 45.1322 29.8339C45.3766 29.2534 45.5026 28.6299 45.5026 28C45.5026 27.3701 45.3766 26.7466 45.1322 26.1661C44.8877 25.5856 44.5297 25.0598 44.0791 24.6197L41.7189 22.3194L41.7589 19.0191C41.7659 18.3895 41.6471 17.7648 41.4093 17.1818C41.1715 16.5987 40.8196 16.0691 40.3742 15.624C39.9289 15.1789 39.3991 14.8272 38.8159 14.5898C38.2328 14.3523 37.608 14.2337 36.9784 14.2411L33.6831 14.2811Z" fill="#CFF7D3"/>
</svg>
