<svg width="40" height="40" viewBox="0 0 40 40" fill="none" xmlns="http://www.w3.org/2000/svg">
<path d="M0 10C0 4.47715 4.47715 0 10 0H30C35.5228 0 40 4.47715 40 10V30C40 35.5228 35.5228 40 30 40H10C4.47715 40 0 35.5228 0 30V10Z" fill="#EF4343" fill-opacity="0.1"/>
<path d="M24 21.0003L29.223 24.4823C29.2983 24.5324 29.3858 24.5611 29.4761 24.5654C29.5664 24.5698 29.6563 24.5495 29.736 24.5068C29.8157 24.4641 29.8824 24.4006 29.9289 24.323C29.9754 24.2454 30 24.1567 30 24.0663V15.8703C30 15.7823 29.9768 15.6959 29.9328 15.6197C29.8887 15.5436 29.8253 15.4804 29.7491 15.4366C29.6728 15.3927 29.5863 15.3698 29.4983 15.3701C29.4103 15.3704 29.324 15.3939 29.248 15.4383L24 18.5003" stroke="#EF4343" stroke-width="2" stroke-linecap="round" stroke-linejoin="round"/>
<path d="M22 14H12C10.8954 14 10 14.8954 10 16V24C10 25.1046 10.8954 26 12 26H22C23.1046 26 24 25.1046 24 24V16C24 14.8954 23.1046 14 22 14Z" stroke="#EF4343" stroke-width="2" stroke-linecap="round" stroke-linejoin="round"/>
</svg>
