<svg width="34" height="34" viewBox="0 0 34 34" fill="none" xmlns="http://www.w3.org/2000/svg">
<path d="M0 10C0 4.47715 4.47715 0 10 0H24C29.5228 0 34 4.47715 34 10V24C34 29.5228 29.5228 34 24 34H10C4.47715 34 0 29.5228 0 24V10Z" fill="#0073BC" fill-opacity="0.2"/>
<path d="M11.0006 18.5C10.8587 18.5005 10.7195 18.4607 10.5993 18.3852C10.4791 18.3098 10.3828 18.2018 10.3215 18.0737C10.2603 17.9457 10.2366 17.8029 10.2532 17.662C10.2699 17.521 10.3262 17.3877 10.4156 17.2775L17.8406 9.6275C17.8963 9.56321 17.9722 9.51977 18.0558 9.5043C18.1395 9.48883 18.2259 9.50226 18.3009 9.54238C18.3759 9.5825 18.435 9.64692 18.4686 9.72508C18.5022 9.80324 18.5082 9.89049 18.4856 9.9725L17.0456 14.4875C17.0031 14.6011 16.9889 14.7234 17.004 14.8438C17.0192 14.9641 17.0633 15.079 17.1327 15.1786C17.202 15.2781 17.2944 15.3594 17.4021 15.4154C17.5097 15.4714 17.6293 15.5004 17.7506 15.5H23.0006C23.1425 15.4995 23.2817 15.5393 23.4019 15.6148C23.5221 15.6902 23.6184 15.7982 23.6797 15.9263C23.741 16.0543 23.7646 16.1971 23.748 16.338C23.7313 16.479 23.675 16.6123 23.5856 16.7225L16.1606 24.3725C16.1049 24.4368 16.029 24.4802 15.9454 24.4957C15.8617 24.5112 15.7753 24.4977 15.7003 24.4576C15.6253 24.4175 15.5662 24.3531 15.5326 24.2749C15.499 24.1968 15.493 24.1095 15.5156 24.0275L16.9556 19.5125C16.9981 19.3989 17.0123 19.2766 16.9972 19.1562C16.982 19.0359 16.9379 18.921 16.8685 18.8214C16.7992 18.7219 16.7068 18.6406 16.5991 18.5846C16.4915 18.5286 16.3719 18.4996 16.2506 18.5H11.0006Z" stroke="#0073BC" stroke-width="1.5" stroke-linecap="round" stroke-linejoin="round"/>
</svg>
